<svg width="144" height="36" viewBox="0 0 144 36" fill="none" xmlns="http://www.w3.org/2000/svg">
<path d="M23.236 11.2828C25.0704 11.5257 26.966 10.7023 28.0852 8.97706C29.6831 6.51371 29.0933 3.14462 26.7677 1.45198C24.4421 -0.240662 21.2614 0.384121 19.6635 2.84747C18.5442 4.57283 18.4983 6.74254 19.3703 8.46932C19.6172 8.95828 19.6485 9.55998 19.352 10.017C19.0205 10.528 18.391 10.7014 17.8363 10.5036C14.0399 9.1493 9.70641 10.552 7.32528 14.2226C4.44891 18.6566 5.51063 24.721 9.69669 27.7677C12.9704 30.1504 17.1855 29.9819 20.2431 27.6745C20.7934 27.2592 21.5345 27.1909 22.0914 27.5962C22.5826 27.9537 22.7986 28.5938 22.7669 29.2242C22.6662 31.2261 23.5226 33.2344 25.1967 34.4528C27.7549 36.3147 31.2536 35.6275 33.0114 32.9178C34.7692 30.2081 34.1203 26.5021 31.5622 24.6402C29.5246 23.1572 26.8904 23.2914 25.0144 24.7766C24.6384 25.0743 24.1217 25.1342 23.7348 24.8526C23.3261 24.5551 23.1997 23.9814 23.3914 23.497C24.7153 20.1519 24.1559 16.296 21.9932 13.5291C21.6198 13.0515 21.547 12.3669 21.8785 11.8558C22.175 11.3988 22.7165 11.2139 23.236 11.2828Z" fill="#0A0A0A"/>
<path d="M1.55133 31.2529C3.17924 32.4377 5.40572 32.0004 6.52431 30.276C7.64289 28.5517 7.23 26.1933 5.60209 25.0085C3.97418 23.8236 1.7477 24.261 0.629118 25.9853C-0.489469 27.7097 -0.0765792 30.068 1.55133 31.2529Z" fill="#0A0A0A"/>
<path d="M42 30V6H45.7263V16.35H58.5631V6H62.3072V30H58.5631V19.6333H45.7263V30H42Z" fill="#0A0A0A"/>
<path d="M75.8559 30.5C73.9422 30.5 72.2604 30.1111 70.8103 29.3333C69.3721 28.5444 68.2488 27.45 67.4406 26.05C66.6442 24.6389 66.246 23.0056 66.246 21.15C66.246 19.1833 66.6383 17.4778 67.4228 16.0333C68.2191 14.5889 69.3245 13.4722 70.739 12.6833C72.1534 11.8944 73.7996 11.5 75.6776 11.5C77.6388 11.5 79.3088 11.9278 80.6875 12.7833C82.0663 13.6278 83.0945 14.8333 83.772 16.4C84.4613 17.9667 84.7347 19.8278 84.5921 21.9833H80.8658V20.7167C80.8421 18.6278 80.4142 17.0833 79.5821 16.0833C78.762 15.0833 77.508 14.5833 75.8202 14.5833C73.9541 14.5833 72.5516 15.1333 71.6126 16.2333C70.6736 17.3333 70.2041 18.9222 70.2041 21C70.2041 22.9778 70.6736 24.5111 71.6126 25.6C72.5516 26.6778 73.9066 27.2167 75.6776 27.2167C76.8424 27.2167 77.8468 26.9722 78.6907 26.4833C79.5465 25.9833 80.2121 25.2722 80.6875 24.35L84.3425 25.4333C83.5937 27.0444 82.4586 28.2944 80.9371 29.1833C79.4157 30.0611 77.722 30.5 75.8559 30.5ZM68.9917 21.9833V19.2667H82.7379V21.9833H68.9917Z" fill="#0A0A0A"/>
<path d="M93.6818 30.5C92.2555 30.5 91.061 30.2556 90.0982 29.7667C89.1354 29.2667 88.4044 28.6111 87.9052 27.8C87.4179 26.9778 87.1742 26.0778 87.1742 25.1C87.1742 24.1889 87.3466 23.3889 87.6913 22.7C88.036 22.0111 88.5471 21.4278 89.2246 20.95C89.9021 20.4611 90.7341 20.0667 91.7206 19.7667C92.5764 19.5333 93.5451 19.3278 94.6268 19.15C95.7084 18.9722 96.8435 18.8056 98.0321 18.65C99.2326 18.4944 100.421 18.3389 101.598 18.1833L100.243 18.8833C100.267 17.4722 99.9457 16.4278 99.2801 15.75C98.6264 15.0611 97.4972 14.7167 95.8926 14.7167C94.8823 14.7167 93.9552 14.9389 93.1113 15.3833C92.2674 15.8167 91.679 16.5389 91.3462 17.55L87.8696 16.55C88.345 15.0056 89.2483 13.7778 90.5796 12.8667C91.9227 11.9556 93.7056 11.5 95.9283 11.5C97.6517 11.5 99.1494 11.7778 100.421 12.3333C101.705 12.8778 102.644 13.7444 103.238 14.9333C103.547 15.5222 103.737 16.1444 103.809 16.8C103.88 17.4556 103.916 18.1611 103.916 18.9167V30H100.617V25.8833L101.259 26.4167C100.463 27.7944 99.4465 28.8222 98.2104 29.5C96.9861 30.1667 95.4766 30.5 93.6818 30.5ZM94.3415 27.65C95.3993 27.65 96.3086 27.4778 97.0693 27.1333C97.83 26.7778 98.4422 26.3278 98.9057 25.7833C99.3693 25.2389 99.6724 24.6722 99.815 24.0833C100.017 23.55 100.13 22.95 100.154 22.2833C100.189 21.6167 100.207 21.0833 100.207 20.6833L101.42 21.1C100.243 21.2667 99.1731 21.4167 98.2104 21.55C97.2476 21.6833 96.374 21.8167 95.5895 21.95C94.8169 22.0722 94.1275 22.2222 93.5214 22.4C93.0103 22.5667 92.5526 22.7667 92.1485 23C91.7563 23.2333 91.4413 23.5167 91.2036 23.85C90.9778 24.1833 90.8648 24.5889 90.8648 25.0667C90.8648 25.5333 90.9896 25.9667 91.2392 26.3667C91.4888 26.7556 91.8692 27.0667 92.3803 27.3C92.8914 27.5333 93.5451 27.65 94.3415 27.65Z" fill="#0A0A0A"/>
<path d="M108.902 30V5.5H112.628V30H108.902Z" fill="#0A0A0A"/>
<path d="M118.339 9.05V5.66667H122.065V9.05H118.339ZM118.339 30V12H122.065V30H118.339Z" fill="#0A0A0A"/>
<path d="M125.28 30L132.482 20.9L125.44 12H129.862L134.658 18.1833L139.4 12H143.822L136.779 20.9L144 30H139.561L134.658 23.6167L129.719 30H125.28Z" fill="#0A0A0A"/>
</svg>
