<svg width="1600" height="342" viewBox="0 0 1600 342" fill="none" xmlns="http://www.w3.org/2000/svg">
<g opacity="0.2">
<mask id="mask0_8502_1730" style="mask-type:alpha" maskUnits="userSpaceOnUse" x="0" y="0" width="1600" height="342">
<rect width="1600" height="342" fill="#C4C4C4"/>
</mask>
<g mask="url(#mask0_8502_1730)">
<path opacity="0.2" d="M261.782 172.923C132.319 171.232 9.20829 250.609 -24.1094 283.707V343.946H1694.25L1635.07 82.5878C1503.56 97.1616 1363.29 68.0139 1323.19 67.2881C1232.75 67.2881 1097.9 150.386 1037.61 194.048C988.107 232.921 924.962 241.23 899.577 240.526C781.537 242.216 691.738 155.316 661.594 111.655C634.94 62.64 604.932 52.5 590.199 52.5001C565.48 52.4685 528.323 66.8661 490.246 115.88C452.168 164.894 391.879 178.555 366.495 179.26C330.988 180.245 288.753 172.922 261.782 172.923Z" fill="url(#paint0_linear_8502_1730)"/>
<path d="M-24.1094 283.707C9.20829 250.609 132.319 171.232 261.782 172.923C288.753 172.922 330.988 180.245 366.494 179.26C391.879 178.555 452.168 164.893 490.246 115.88C528.323 66.8661 565.48 52.4685 590.199 52.5001C604.932 52.5 634.94 62.64 661.594 111.655C691.738 155.316 781.537 242.216 899.577 240.526C924.962 241.23 988.107 232.921 1037.61 194.048C1097.9 150.386 1232.75 67.2881 1323.19 67.2881C1363.29 68.0139 1503.56 97.1616 1635.07 82.5878" stroke="white" stroke-linejoin="round"/>
</g>
</g>
<defs>
<linearGradient id="paint0_linear_8502_1730" x1="835.069" y1="52.5" x2="834.638" y2="343.948" gradientUnits="userSpaceOnUse">
<stop stop-color="white"/>
<stop offset="1" stop-color="white" stop-opacity="0"/>
</linearGradient>
</defs>
</svg>
