<svg width="631" height="149" viewBox="0 0 631 149" fill="none" xmlns="http://www.w3.org/2000/svg">
<path d="M98.4113 45.9037C106.181 46.9382 114.209 43.4328 118.949 36.088C125.717 25.6012 123.219 11.2585 113.369 4.0527C103.52 -3.1531 90.0484 -0.493314 83.2805 9.99351C78.5402 17.3386 78.3456 26.5754 82.0388 33.9265C83.0846 36.0081 83.217 38.5696 81.9614 40.5153C80.5575 42.6906 77.8912 43.429 75.5419 42.5866C59.463 36.8213 41.1095 42.7927 31.0247 58.419C18.8424 77.2953 23.3391 103.112 41.0683 116.083C54.9334 126.226 72.7855 125.509 85.7354 115.686C88.0662 113.918 91.205 113.627 93.5637 115.353C95.644 116.875 96.5586 119.599 96.4244 122.283C95.998 130.805 99.6251 139.355 106.715 144.542C117.55 152.468 132.368 149.543 139.813 138.007C147.258 126.472 144.51 110.695 133.675 102.768C125.046 96.4549 113.889 97.0263 105.943 103.349C104.351 104.616 102.162 104.871 100.524 103.673C98.7928 102.406 98.2574 99.9637 99.0694 97.9015C104.677 83.6609 102.307 67.2458 93.1475 55.4668C91.5664 53.4336 91.258 50.5189 92.662 48.3434C93.9177 46.3977 96.2111 45.6108 98.4113 45.9037Z" fill="#0A0A0A"/>
<path d="M6.57035 130.919C13.465 135.963 22.8948 134.102 27.6324 126.761C32.3699 119.42 30.6212 109.38 23.7265 104.336C16.8318 99.292 7.40204 101.154 2.6645 108.495C-2.07304 115.835 -0.324335 125.875 6.57035 130.919Z" fill="#0A0A0A"/>
<path d="M176 125.86V23.14H191.855V67.438H246.475V23.14H262.405V125.86H246.475V81.4907H191.855V125.86H176Z" fill="#0A0A0A"/>
<path d="M320.053 128C311.911 128 304.755 126.336 298.585 123.007C292.465 119.63 287.686 114.946 284.247 108.954C280.859 102.914 279.165 95.9238 279.165 87.982C279.165 79.5647 280.833 72.2649 284.171 66.0827C287.56 59.9004 292.263 55.1211 298.281 51.7447C304.3 48.3682 311.304 46.68 319.295 46.68C327.64 46.68 334.745 48.5109 340.612 52.1727C346.478 55.7869 350.853 60.9467 353.736 67.652C356.669 74.3573 357.832 82.3229 357.225 91.5487H341.37V86.1273C341.269 77.1869 339.448 70.5767 335.908 66.2967C332.419 62.0167 327.083 59.8767 319.902 59.8767C311.962 59.8767 305.994 62.2307 301.999 66.9387C298.003 71.6467 296.006 78.4471 296.006 87.34C296.006 95.8049 298.003 102.368 301.999 107.028C305.994 111.641 311.759 113.947 319.295 113.947C324.251 113.947 328.525 112.901 332.115 110.809C335.757 108.669 338.589 105.625 340.612 101.678L356.163 106.315C352.977 113.21 348.147 118.56 341.674 122.365C335.2 126.122 327.994 128 320.053 128ZM290.847 91.5487V79.9213H349.336V91.5487H290.847Z" fill="#0A0A0A"/>
<path d="M395.901 128C389.832 128 384.75 126.954 380.653 124.861C376.557 122.721 373.446 119.916 371.322 116.444C369.249 112.925 368.212 109.073 368.212 104.888C368.212 100.988 368.945 97.5644 370.412 94.616C371.879 91.6676 374.053 89.1709 376.936 87.126C379.819 85.0336 383.359 83.3453 387.556 82.0613C391.198 81.0627 395.319 80.1829 399.922 79.422C404.524 78.6611 409.354 77.9478 414.411 77.282C419.519 76.6162 424.576 75.9504 429.583 75.2847L423.818 78.2807C423.919 72.2411 422.553 67.7709 419.721 64.87C416.94 61.9216 412.135 60.4473 405.308 60.4473C401.009 60.4473 397.064 61.3984 393.474 63.3007C389.883 65.1553 387.379 68.2464 385.963 72.574L371.17 68.294C373.193 61.6838 377.037 56.4289 382.701 52.5293C388.416 48.6298 396.002 46.68 405.46 46.68C412.793 46.68 419.165 47.8689 424.576 50.2467C430.038 52.5769 434.034 56.2862 436.562 61.3747C437.877 63.8951 438.686 66.5582 438.99 69.364C439.293 72.1698 439.445 75.1896 439.445 78.4233V125.86H425.411V108.241L428.142 110.523C424.753 116.42 420.429 120.819 415.17 123.72C409.961 126.573 403.538 128 395.901 128ZM398.708 115.802C403.209 115.802 407.078 115.065 410.315 113.591C413.551 112.069 416.156 110.143 418.128 107.813C420.101 105.482 421.39 103.057 421.997 100.537C422.857 98.254 423.337 95.686 423.438 92.8327C423.59 89.9793 423.666 87.6967 423.666 85.9847L428.825 87.768C423.818 88.4813 419.266 89.1233 415.17 89.694C411.073 90.2647 407.356 90.8353 404.018 91.406C400.731 91.9291 397.798 92.5711 395.218 93.332C393.044 94.0453 391.097 94.9013 389.377 95.9C387.708 96.8987 386.368 98.1113 385.356 99.538C384.396 100.965 383.915 102.7 383.915 104.745C383.915 106.743 384.446 108.597 385.508 110.309C386.57 111.974 388.189 113.305 390.363 114.304C392.538 115.303 395.319 115.802 398.708 115.802Z" fill="#0A0A0A"/>
<path d="M460.661 125.86V21H476.516V125.86H460.661Z" fill="#0A0A0A"/>
<path d="M500.814 36.194V21.7133H516.669V36.194H500.814ZM500.814 125.86V48.82H516.669V125.86H500.814Z" fill="#0A0A0A"/>
<path d="M530.346 125.86L560.994 86.912L531.029 48.82H549.842L570.249 75.2847L590.428 48.82H609.241L579.276 86.912L610 125.86H591.111L570.249 98.5393L549.236 125.86H530.346Z" fill="#0A0A0A"/>
</svg>
