<svg xmlns="http://www.w3.org/2000/svg" width="470" height="189" fill="none"><path fill="#E2F2FC" d="M145.672 151.1h-22.238v34.659H93.2V151.1H.5v-27.926L83.206 3.491h40.228v119.683h22.238V151.1Zm-111.19-27.926H93.2V37.9l-58.718 85.274Zm124.36-28.175C158.842 38.399 189.325 0 236.05 0c46.725 0 77.459 38.398 77.459 94.999 0 56.351-28.985 94.001-77.459 94.001-48.474 0-77.208-37.65-77.208-94.001Zm31.483 0c0 42.138 16.991 65.826 45.725 65.826 28.985 0 45.976-23.688 45.976-65.826 0-43.136-16.991-66.823-45.976-66.823-28.734 0-45.725 23.687-45.725 66.823ZM469.5 151.1h-22.238v34.659h-30.234V151.1h-92.7v-27.926L407.034 3.491h40.228v119.683H469.5V151.1Zm-111.19-27.926h58.718V37.9l-58.718 85.274Z"/></svg>