<svg width="21" height="21" viewBox="0 0 21 21" fill="none" xmlns="http://www.w3.org/2000/svg">
<g clip-path="url(#clip0_14714_504)">
<path d="M20.834 10.5C20.834 4.97715 16.3568 0.5 10.834 0.5C5.31113 0.5 0.833984 4.97715 0.833984 10.5C0.833984 15.4912 4.49082 19.6283 9.27148 20.3785V13.3906H6.73242V10.5H9.27148V8.29688C9.27148 5.79063 10.7645 4.40625 13.0486 4.40625C14.1424 4.40625 15.2871 4.60156 15.2871 4.60156V7.0625H14.0262C12.784 7.0625 12.3965 7.8334 12.3965 8.625V10.5H15.1699L14.7266 13.3906H12.3965V20.3785C17.1771 19.6283 20.834 15.4912 20.834 10.5Z" fill="#0A0A0A"/>
</g>
<defs>
<clipPath id="clip0_14714_504">
<rect x="0.833984" y="0.5" width="20" height="20" rx="10" fill="white"/>
</clipPath>
</defs>
</svg>
