<svg width="20" height="21" viewBox="0 0 20 21" fill="none" xmlns="http://www.w3.org/2000/svg">
<path fill-rule="evenodd" clip-rule="evenodd" d="M17.1661 17.5422H14.3252V12.9C14.3252 11.7944 14.3071 10.37 12.8483 10.37C11.3682 10.37 11.1435 11.5767 11.1435 12.8222V17.5422H8.3026V7.99778H11.0275V9.30222H11.0669C11.4459 8.55222 12.3734 7.76111 13.7566 7.76111C16.6348 7.76111 17.1672 9.73667 17.1672 12.3078V17.5422H17.1661ZM5.09857 6.69444C4.88211 6.69466 4.66772 6.65039 4.46766 6.56416C4.26759 6.47792 4.08576 6.35141 3.93255 6.19185C3.77934 6.03228 3.65775 5.8428 3.57472 5.6342C3.49169 5.4256 3.44885 5.20198 3.44864 4.97611C3.44843 4.75024 3.49085 4.52653 3.5735 4.31777C3.65614 4.109 3.77738 3.91927 3.93029 3.7594C4.08321 3.59953 4.2648 3.47265 4.46471 3.38601C4.66461 3.29937 4.87891 3.25466 5.09537 3.25444C5.53254 3.254 5.95197 3.43479 6.26139 3.75704C6.57081 4.07929 6.74488 4.51661 6.7453 4.97278C6.74573 5.42895 6.57247 5.86661 6.26365 6.18949C5.95482 6.51236 5.53573 6.694 5.09857 6.69444ZM3.67491 17.5422H6.5201V7.99778H3.67385L3.67491 17.5422ZM18.5823 0.5H2.24806C1.46755 0.5 0.833984 1.14556 0.833984 1.94222V19.0567C0.833984 19.8533 1.46755 20.5 2.24806 20.5H18.5823C19.3639 20.5 20.0007 19.8533 20.0007 19.0567V1.94222C20.0007 1.14556 19.3639 0.5 18.5823 0.5Z" fill="#0A0A0A"/>
</svg>
