<svg width="22" height="16" viewBox="0 0 22 16" fill="none" xmlns="http://www.w3.org/2000/svg">
<path d="M5.16376 2.1281C4.88725 2.39146 4.88725 2.81845 5.16376 3.08182L6.66577 4.51239C6.94229 4.77575 7.3906 4.77575 7.66711 4.51239L8.85291 3.38299C9.05209 3.19328 9.32224 3.0867 9.60392 3.0867H12.5176C12.7992 3.0867 13.0694 3.19328 13.2686 3.38299L14.4544 4.51239C14.7309 4.77575 15.1792 4.77575 15.4557 4.51239L16.9577 3.08182C17.2342 2.81845 17.2342 2.39146 16.9577 2.1281L15.4557 0.697521C15.1792 0.43416 14.7309 0.43416 14.4544 0.697521L13.319 1.77885C13.1199 1.96856 12.8497 2.07513 12.568 2.07513H9.55344C9.27176 2.07513 9.00162 1.96856 8.80244 1.77885L7.66711 0.697521C7.3906 0.434159 6.94229 0.43416 6.66577 0.697521L5.16376 2.1281Z" fill="white"/>
<path d="M15.7846 7.46526C15.5081 7.72862 15.5081 8.15562 15.7846 8.41898L18.2879 10.8033C18.5644 11.0666 19.0128 11.0666 19.2893 10.8033L21.7926 8.41898C22.0691 8.15562 22.0691 7.72862 21.7926 7.46526L19.2893 5.08097C19.0128 4.81761 18.5644 4.81761 18.2879 5.08097L15.7846 7.46526Z" fill="white"/>
<path d="M5.16376 13.8719C4.88725 13.6085 4.88725 13.1815 5.16376 12.9182L6.66577 11.4876C6.94229 11.2242 7.3906 11.2242 7.66711 11.4876L8.80244 12.5689C9.00162 12.7586 9.27176 12.8652 9.55344 12.8652H12.568C12.8497 12.8652 13.1199 12.7586 13.319 12.5689L14.4544 11.4876C14.7309 11.2242 15.1792 11.2242 15.4557 11.4876L16.9577 12.9182C17.2342 13.1815 17.2342 13.6085 16.9577 13.8719L15.4557 15.3025C15.1792 15.5658 14.7309 15.5658 14.4544 15.3025L13.2686 14.1731C13.0694 13.9834 12.7992 13.8768 12.5176 13.8768H9.60392C9.32224 13.8768 9.05209 13.9834 8.85291 14.1731L7.66711 15.3025C7.3906 15.5658 6.94229 15.5658 6.66577 15.3025L5.16376 13.8719Z" fill="white"/>
<path d="M0.207384 7.46529C-0.0691281 7.72865 -0.069128 8.15564 0.207384 8.41901L2.71073 10.8033C2.98725 11.0667 3.43556 11.0667 3.71207 10.8033L5.83837 8.77813C6.03754 8.58842 6.30769 8.48185 6.58937 8.48185H7.59163C7.87331 8.48185 8.14346 8.58842 8.34264 8.77813L10.5045 10.8372C10.7811 11.1006 11.2294 11.1006 11.5059 10.8372L14.0092 8.45292C14.2857 8.18956 14.2857 7.76257 14.0092 7.4992L11.5059 5.11491C11.2294 4.85155 10.7811 4.85155 10.5045 5.11491L8.34263 7.174C8.14346 7.3637 7.87331 7.47028 7.59163 7.47028H6.66059C6.37891 7.47028 6.10877 7.3637 5.90959 7.174L3.71207 5.08099C3.43556 4.81763 2.98725 4.81763 2.71073 5.08099L0.207384 7.46529Z" fill="white"/>
</svg>
