<svg width="43" height="20" viewBox="0 0 43 20" fill="none" xmlns="http://www.w3.org/2000/svg">
<path d="M0 5.5101V0.137696C0.24146 0.167738 0.743044 0.246063 0.743044 0.246063C2.97298 0.619569 5.68163 1.51696 8.18576 3.50993C8.46995 3.73611 8.50129 4.14805 8.26728 4.42473L5.68547 7.47743C5.44157 7.76582 5.00533 7.7948 4.70591 7.56304C3.14357 6.35374 1.46634 5.77499 0 5.5101Z" fill="white"/>
<path d="M0 19.8623V14.4899C1.99439 14.1296 4.37888 13.1887 6.33384 10.8704C6.85079 10.2574 7.35621 9.64252 7.85507 9.03562C9.62329 6.8845 11.3094 4.83322 13.1367 3.31643C15.43 1.41271 17.9808 0 21.5 0C25.0193 0 27.5701 1.41271 29.8634 3.31643C30.7472 4.05005 31.5979 4.90869 32.4409 5.84319L32.5371 5.7291C35.5702 2.13217 39.3269 0.73685 42.257 0.246063C42.5106 0.20359 42.7586 0.167747 43 0.137706V5.51012C41.0056 5.87041 38.6212 6.81129 36.6662 9.12958C36.4216 9.41966 36.1796 9.71015 35.9396 10C36.1796 10.2899 36.4216 10.5803 36.6662 10.8704C38.6212 13.1887 41.0056 14.1296 43 14.4899V19.8623C42.7586 19.8323 42.5106 19.7964 42.257 19.7539C39.3269 19.2632 35.5702 17.8678 32.5371 14.2709C31.8752 13.4861 31.2803 12.7638 30.7318 12.0979C29.0511 10.0573 27.8059 8.54552 26.4063 7.38364C25.0545 6.26153 23.5809 5.32946 21.5 5.32946C19.4192 5.32946 17.9456 6.26153 16.5938 7.38364C15.7235 8.10613 14.9128 8.96391 14.0201 10C14.9128 11.0361 15.7235 11.8939 16.5938 12.6164C17.9456 13.7385 19.4192 14.6705 21.5 14.6705C23.5809 14.6705 25.0545 13.7385 26.4063 12.6164C26.4533 12.5773 26.5002 12.5379 26.5469 12.498C26.8424 12.2459 27.2929 12.2724 27.5408 12.5704C28.373 13.5702 29.2335 14.5877 30.1298 15.5576C30.3812 15.8295 30.3687 16.2528 30.0874 16.4944C30.013 16.5583 29.9383 16.6214 29.8634 16.6836C27.5701 18.5873 25.0193 20 21.5 20C17.9808 20 15.43 18.5873 13.1367 16.6836C12.2529 15.95 11.4021 15.0913 10.5591 14.1568L10.463 14.2709C7.42988 17.8678 3.67318 19.2632 0.743043 19.7539C0.489436 19.7964 0.24146 19.8323 0 19.8623Z" fill="white"/>
</svg>
