<svg width="40" height="44" viewBox="0 0 40 44" fill="none" xmlns="http://www.w3.org/2000/svg">
<path fill-rule="evenodd" clip-rule="evenodd" d="M14.0183 5.93651C14.0183 2.65787 16.6964 0 20 0C23.3036 0 25.9817 2.65787 25.9817 5.93651C25.9817 9.21515 23.3036 11.873 20 11.873C18.6141 11.873 17.3383 11.4053 16.3241 10.6201C16.0804 10.4315 15.7459 10.3903 15.4783 10.5436L12.2638 12.3854C11.9962 12.5388 11.8649 12.847 11.9077 13.1507C12.0857 14.4149 11.856 15.7453 11.163 16.9364C10.47 18.1276 9.42388 18.9903 8.2316 19.4694C7.94518 19.5845 7.74188 19.8515 7.74188 20.1581V23.8417C7.74188 24.1484 7.94518 24.4153 8.23159 24.5304C9.42387 25.0095 10.47 25.8722 11.163 27.0634C12.8148 29.9028 11.8346 33.5335 8.97355 35.1728C6.11255 36.8122 2.4542 35.8393 0.802395 32.9999C-0.849406 30.1605 0.130846 26.5298 2.99185 24.8905C3.2342 24.7516 3.48228 24.6315 3.73437 24.5297C4.02031 24.4142 4.22324 24.1474 4.22324 23.8411V20.1588C4.22324 19.8524 4.02031 19.5857 3.73438 19.4702C3.48229 19.3683 3.23421 19.2482 2.99186 19.1093C0.13086 17.47 -0.849392 13.8393 0.802409 10.9999C2.45421 8.16053 6.11256 7.18769 8.97356 8.82701C9.21599 8.96591 9.44491 9.11912 9.65987 9.28493C9.90362 9.47295 10.2379 9.514 10.5052 9.36081L13.7183 7.51977C13.9856 7.36658 14.1169 7.05878 14.0747 6.75527C14.0375 6.48763 14.0183 6.2143 14.0183 5.93651ZM20 3.49206C18.6397 3.49206 17.5369 4.58648 17.5369 5.93651C17.5369 7.28654 18.6397 8.38095 20 8.38095C21.3603 8.38095 22.4631 7.28654 22.4631 5.93651C22.4631 4.58648 21.3603 3.49206 20 3.49206ZM7.21424 11.8512C6.03618 11.1762 4.5298 11.5768 3.84965 12.746C3.16949 13.9151 3.57313 15.4101 4.75119 16.0851C5.92925 16.7601 7.43563 16.3596 8.11578 15.1904C8.79593 14.0212 8.3923 12.5262 7.21424 11.8512ZM8.11577 28.8094C7.43561 27.6403 5.92923 27.2397 4.75117 27.9147C3.57311 28.5897 3.16948 30.0847 3.84963 31.2539C4.52979 32.423 6.03617 32.8236 7.21423 32.1486C8.39229 31.4736 8.79592 29.9786 8.11577 28.8094Z" fill="#E2F2FC"/>
<path fill-rule="evenodd" clip-rule="evenodd" d="M14.0183 38.0635C14.0183 34.7849 16.6964 32.127 20 32.127C21.3859 32.127 22.6618 32.5948 23.676 33.3799C23.9196 33.5685 24.2542 33.6098 24.5218 33.4565L27.7362 31.6146C28.0038 31.4613 28.1351 31.1531 28.0923 30.8494C27.9143 29.5851 28.144 28.2546 28.837 27.0634C29.5299 25.8723 30.576 25.0096 31.7682 24.5305C32.0545 24.4154 32.2578 24.1485 32.2578 23.8418V20.158C32.2578 19.8514 32.0545 19.5844 31.7682 19.4693C30.576 18.9902 29.5299 18.1276 28.837 16.9364C27.1852 14.097 28.1654 10.4663 31.0264 8.82701C33.8874 7.18769 37.5458 8.16053 39.1976 10.9999C40.8494 13.8393 39.8691 17.47 37.0081 19.1093C36.7657 19.2483 36.5175 19.3684 36.2654 19.4703C35.9794 19.5858 35.7765 19.8525 35.7765 20.1589V23.841C35.7765 24.1473 35.9794 24.4141 36.2654 24.5296C36.5176 24.6314 36.7657 24.7516 37.0081 24.8905C39.8692 26.5298 40.8494 30.1605 39.1976 32.9999C37.5458 35.8393 33.8875 36.8122 31.0264 35.1728C30.7841 35.034 30.5552 34.8808 30.3403 34.715C30.0965 34.527 29.7623 34.486 29.495 34.6392L26.2817 36.4803C26.0144 36.6335 25.8831 36.9413 25.9253 37.2448C25.9625 37.5124 25.9817 37.7857 25.9817 38.0635C25.9817 41.3421 23.3036 44 20 44C16.6964 44 14.0183 41.3421 14.0183 38.0635ZM20 35.619C18.6397 35.619 17.5369 36.7135 17.5369 38.0635C17.5369 39.4135 18.6397 40.5079 20 40.5079C21.3603 40.5079 22.4631 39.4135 22.4631 38.0635C22.4631 36.7135 21.3603 35.619 20 35.619ZM31.8842 28.8094C32.5644 27.6403 34.0708 27.2397 35.2488 27.9147C36.4269 28.5897 36.8305 30.0847 36.1504 31.2539C35.4702 32.423 33.9638 32.8236 32.7858 32.1486C31.6077 31.4736 31.2041 29.9786 31.8842 28.8094ZM32.7858 11.8512C33.9638 11.1762 35.4702 11.5768 36.1504 12.746C36.8305 13.9151 36.4269 15.4101 35.2488 16.0851C34.0708 16.7601 32.5644 16.3596 31.8842 15.1904C31.2041 14.0212 31.6077 12.5262 32.7858 11.8512Z" fill="#E2F2FC"/>
</svg>
