<svg width="275" height="228" viewBox="0 0 275 228" fill="none" xmlns="http://www.w3.org/2000/svg">
<path d="M-236.887 281.8C-238.209 281.567 -240.093 280.759 -240.098 280.417C-240.103 280.054 -242.582 277.848 -244.002 276.944C-246.637 275.264 -247.457 274.014 -247.853 271.075C-248.032 270.093 -248.246 268.848 -248.424 268.308C-248.603 267.768 -248.853 267.004 -248.96 266.611C-249.139 266.218 -249.318 265.375 -249.497 264.736C-251.464 257.875 -246.275 246.368 -230.778 223.221C-215.665 200.647 -197.086 176.127 -152.303 119.656C-127.816 88.7801 -119.915 78.5329 -109.142 63.678C-100.743 52.0939 -89.3674 35.1955 -89.8245 34.9797C-90.0388 34.8785 -103.152 42.3294 -111.268 47.1614C-150.266 70.3869 -191.267 98.4376 -250.113 142.155C-270.674 157.429 -291.859 173.502 -336.851 207.954C-370.18 233.475 -388.56 246.989 -402.019 255.869C-410.886 261.72 -415.309 264.449 -418.994 266.347C-419.851 266.791 -421.838 267.834 -423.397 268.666C-426.65 270.4 -429.287 271.595 -431.274 272.236C-432.042 272.482 -433.933 273.272 -435.492 273.993C-438.909 275.573 -442.22 276.714 -445.477 277.434C-447.423 277.864 -448.442 277.973 -450.671 277.991C-455.538 278.024 -456.935 277.62 -458.755 275.629C-459.344 274.99 -460.554 273.96 -461.455 273.34C-464.734 271.081 -465.453 270.004 -466.076 266.433C-466.308 265.156 -466.828 262.986 -467.22 261.612C-468.863 256.099 -467.828 251.838 -462.314 241.366C-453.642 224.906 -427.437 186.722 -378.606 119.389C-372.019 110.305 -365.214 100.904 -363.484 98.4977C-361.752 96.0916 -359.297 92.7164 -358.024 90.9978C-356.756 89.2793 -355.953 87.994 -356.239 88.1412C-360.324 90.1872 -372.948 97.1036 -381.926 102.214C-445.589 138.451 -514.437 185.791 -551.853 219.056C-557.138 223.755 -558.073 224.851 -557.212 225.341C-556.266 225.877 -559.182 227.775 -560.944 227.775C-563.522 227.775 -563.708 223.481 -561.319 219.114C-553.605 205.023 -516.517 172 -469.875 137.691C-422.217 102.635 -359.577 63.2624 -338.717 55.2518C-337.771 54.8908 -335.991 54.3405 -334.748 54.029C-332.594 53.4891 -332.344 53.4671 -329.464 53.5692C-327.804 53.6282 -325.25 53.796 -323.795 53.942C-322.331 54.0879 -320.119 54.2096 -318.858 54.2113C-317.376 54.2133 -315.784 54.3598 -314.316 54.6314C-313.066 54.8609 -311.084 55.0963 -309.889 55.1545C-306.097 55.3393 -303.432 56.287 -302.289 57.8561C-301.932 58.3479 -301.326 58.6472 -299.778 59.0831C-293.791 60.777 -293.792 64.8655 -299.785 76.1768C-303.768 83.6951 -313.973 99.7196 -319.854 107.692C-335.058 128.302 -367.892 174.243 -388.44 203.658C-389.369 204.977 -389.975 205.982 -389.796 205.89C-389.618 205.798 -382.076 200.057 -373.033 193.133C-344.248 171.094 -332.134 161.849 -319.913 152.6C-242.246 93.8203 -186.075 55.1318 -138.133 27.3924C-114.064 13.4666 -95.6837 4.56611 -84.5651 1.45344C-78.5371 -0.233912 -76.3625 -0.343001 -66.8884 0.567317C-64.0405 0.84064 -61.8534 0.957309 -60.816 0.890665C-59.6197 0.814742 -58.3969 0.907579 -56.0971 1.27117C-54.4009 1.53858 -52.9198 1.81788 -52.8234 1.89212C-52.6448 1.96804 -51.7158 2.03702 -50.5784 2.04967C-47.9839 2.07498 -44.7501 2.63946 -43.4859 3.28025C-42.1289 3.97115 -40.6248 5.11262 -40.332 5.68323C-40.1534 6.02488 -39.4922 6.32386 -38.087 6.69858C-34.5141 7.6515 -33.0222 8.93434 -32.2543 11.7167C-30.4866 18.1286 -37.894 33.13 -55.4476 58.6779C-67.8929 76.7938 -79.3104 91.7587 -114.914 136.619C-134.096 160.788 -142.82 171.942 -153.044 185.366C-160.226 194.796 -168.691 206.211 -168.55 206.278C-168.55 206.312 -166.656 204.996 -164.502 203.353C-101.368 155.181 -54.9507 122.503 -9.21582 94.0326C55.7404 53.5973 108.594 28.1637 131.79 26.1808C134.611 25.9396 137.893 26.051 143.325 26.5706C145.398 26.7689 148.543 26.9568 150.315 26.9872C152.7 27.0293 154.227 27.1689 156.184 27.5257C157.648 27.7906 159.953 28.0655 161.328 28.1364C166.385 28.3971 169.898 29.555 172.403 31.7885C172.956 32.2854 173.992 32.8577 174.8 33.1081C179.764 34.66 181.566 36.768 181.954 41.4673C182.704 50.5461 176.468 63.0376 153.697 98.0935C143.005 114.553 139.587 120.345 141.182 119.293C141.361 119.198 142.289 118.799 143.333 118.406C145.247 117.683 146.677 117.124 147.446 116.798C147.678 116.7 148.965 116.179 150.325 115.64C155.3 113.655 173.91 105.947 174.892 105.463C175.07 105.412 176.778 104.647 178.854 103.763C180.931 102.88 185.439 100.951 188.874 99.478C192.31 98.0048 196.819 96.0769 198.896 95.1931C200.973 94.3094 202.753 93.5459 202.859 93.4966C203.037 93.446 204.749 92.6833 206.828 91.8C208.906 90.9163 210.691 90.149 210.797 90.0952C211.207 89.8784 234.475 79.9904 241.385 77.0913C245.453 75.3848 249.375 73.7361 250.102 73.4273C255.467 71.1502 274.777 63.2629 282.037 60.3827C283.287 59.8875 284.388 59.44 284.494 59.3874C285.047 59.109 292.356 56.2669 298.666 53.8792C302.615 52.3846 306.188 51.0274 306.604 50.863C307.014 50.6985 311.166 49.2152 315.817 47.5667C336.012 40.4085 348.128 37.1513 356.576 36.6099C358.408 36.4926 364.101 36.7922 367.317 37.1752C368.495 37.3153 371.128 37.4639 373.176 37.5053C376.017 37.5643 377.529 37.6941 379.547 38.0577C381.011 38.3201 383.041 38.572 384.08 38.6184C389.375 38.8546 393.059 40.0091 395.138 42.0821C395.905 42.8548 396.529 43.1893 397.947 43.5917C401.329 44.5549 403.135 46.0783 403.915 48.6294C404.826 51.5738 404.2 54.7411 400.85 64.302C396.776 75.9397 395.985 79.1549 395.985 84.0834C395.985 88.5182 397.056 91.5341 399.604 94.2097C400.639 95.302 402.018 95.8052 406.757 96.8263L409.026 97.3144L422.631 97.247C442.308 97.15 445.569 97.1796 450.408 97.5111C452.799 97.674 456.255 97.8798 458.089 97.9684C461.121 98.1143 465.674 98.5885 471.195 99.3307C475.4 99.896 478.895 100.971 481.607 102.535L483 103.338L482.392 104.086C480.928 105.902 474.269 109.525 466.492 112.749C456.816 116.76 451.173 118.193 439.362 119.639C430.57 120.716 419.174 121.618 412.049 121.801C409.971 121.852 407.216 121.936 405.927 121.982C402.815 122.094 393.736 121.779 390.262 121.438C388.726 121.288 386.124 120.953 384.462 120.694C373.474 118.981 367.096 116.445 362.323 111.888C361.663 111.249 360.434 110.255 359.608 109.679C357.47 108.188 354.62 105.279 353.503 103.448C352.253 101.398 351.493 99.2869 350.811 95.951C350.507 94.4535 350.187 93.0674 350.115 92.871C350.115 92.6744 349.846 91.9914 349.703 91.3531C349.525 90.7145 349.383 90.15 349.311 90.0983C348.972 89.8368 348.562 85.3286 348.616 82.3359C348.616 78.1772 350.115 71.3505 351.977 66.3322C352.28 65.5097 352.53 64.7703 352.53 64.6887C352.532 64.3377 340.556 68.1444 330.948 71.549C326.711 73.0509 323.157 74.3266 323.053 74.3835C322.875 74.4425 320.825 75.2485 318.332 76.1794C315.84 77.1104 313.458 78.0041 313.04 78.1653C307.025 80.4893 304.529 81.4676 301.51 82.6876C287.715 88.2598 284.317 89.6405 281.272 90.9067C279.383 91.6921 276.662 92.8172 275.228 93.4065C273.8 93.9953 271.681 94.8764 270.531 95.3635C269.388 95.8503 267.859 96.4938 267.151 96.7924C266.436 97.091 265.419 97.5235 264.884 97.7547C264.348 97.9858 262.729 98.6686 261.292 99.2726C259.846 99.8766 258.493 100.451 258.266 100.549C258.034 100.647 256.156 101.451 254.077 102.335C251.999 103.219 250.214 103.982 250.11 104.031C249.753 104.201 241.43 107.757 238.622 108.942C237.55 109.392 230.248 112.523 230.08 112.602C229.901 112.653 228.192 113.414 226.115 114.298C222.574 115.805 220.553 116.668 218.58 117.512C218.116 117.709 216.244 118.512 214.408 119.298C212.573 120.083 210.881 120.807 210.653 120.905C210.421 121.003 208.535 121.807 206.457 122.691C204.379 123.575 202.594 124.345 202.49 124.403C202.115 124.613 189.598 129.838 181.315 133.243C178.712 134.314 175.413 135.672 173.983 136.261C172.555 136.85 169.494 138.081 167.187 138.997C164.882 139.912 162.571 140.833 162.052 141.043C159.657 142.012 149.406 145.854 146.178 146.992C129.136 153 119.426 155.346 110.619 155.585C107.547 155.67 106.622 155.628 104.538 155.297C101.344 154.795 100.069 154.183 98.0321 152.175C97.1215 151.279 95.8427 150.229 95.1855 149.843C92.3126 148.151 90.8822 146.008 90.2269 142.405C90.0126 141.186 89.4589 139.064 89.0303 137.689C87.4948 132.827 88.0133 127.624 90.6738 121.53C93.9377 114.056 97.1487 108.605 109.155 90.1467C119.193 74.714 124.864 65.4173 128.839 57.8731C129.874 55.909 130.812 54.1546 130.925 53.9744C131.121 53.6581 131.102 53.6577 130.048 53.9667C128.37 54.4644 123.523 56.1661 121.225 57.0601C113.889 59.913 95.1862 68.9678 83.032 75.5502C43.9911 96.6948 1.40912 123.58 -43.9436 155.721C-71.2231 175.054 -90.1922 189.106 -130.117 219.559C-161.437 243.449 -175.349 253.644 -188.114 262.056C-197.054 267.949 -198.322 268.69 -208.339 273.911C-210.544 275.061 -212.629 275.963 -214.37 276.52C-215.138 276.765 -216.912 277.509 -218.315 278.172C-221.32 279.593 -224.819 280.807 -227.692 281.429C-230.349 282.004 -234.699 282.178 -236.87 281.798L-236.887 281.8Z" fill="#FF3B3B"/>
</svg>
