<svg width="40" height="31" viewBox="0 0 40 31" fill="none" xmlns="http://www.w3.org/2000/svg">
<path fill-rule="evenodd" clip-rule="evenodd" d="M38.1946 6.73166C41.9112 13.1689 39.7056 21.4002 33.2683 25.1168C33.08 25.2255 32.8902 25.3291 32.699 25.4278L32.7133 25.4372C32.7133 25.4372 30.2157 26.8792 21.9959 28.6647C15.8763 29.994 11.2949 30.4352 9.35334 30.5739C9.08714 30.5929 8.98863 30.2541 9.21976 30.1207L18.5377 24.741C18.7008 24.6468 18.7103 24.4145 18.5586 24.3029C18.3916 24.1802 18.2272 24.0533 18.0655 23.9224C17.9999 23.8693 17.9125 23.8508 17.8313 23.8741L0.328195 28.881C0.0716083 28.9544 -0.112369 28.6358 0.0794903 28.4503L13.1672 15.7956C13.2279 15.7369 13.2556 15.652 13.2424 15.5686C13.2099 15.3631 13.1823 15.1573 13.1594 14.9514C13.1387 14.7642 12.9327 14.6562 12.7696 14.7504L3.45169 20.1301C3.22056 20.2635 2.97645 20.0089 3.12602 19.7878C4.21687 18.1758 6.88965 14.4287 11.1007 9.79359C16.7568 3.56786 19.2545 2.12584 19.2545 2.12584L19.2555 2.14297C19.4365 2.02669 19.6212 1.91411 19.8095 1.80539C26.2468 -1.91117 34.4781 0.294404 38.1946 6.73166ZM29.7433 19.0114C32.8087 17.2416 33.859 13.322 32.0892 10.2566C30.3194 7.19124 26.3997 6.14097 23.3344 7.91076C20.269 9.68055 19.2187 13.6002 20.9885 16.6656C22.7583 19.7309 26.678 20.7812 29.7433 19.0114Z" fill="#E2F2FC"/>
</svg>
