<svg width="89" height="28" viewBox="0 0 89 28" fill="none" xmlns="http://www.w3.org/2000/svg">
<circle cx="14" cy="14" r="14" fill="#FFCE8A"/>
<path d="M17.3337 20.667H10.667C10.3937 20.667 10.167 20.4403 10.167 20.167C10.167 19.8937 10.3937 19.667 10.667 19.667H17.3337C17.607 19.667 17.8337 19.8937 17.8337 20.167C17.8337 20.4403 17.607 20.667 17.3337 20.667Z" fill="white"/>
<path d="M19.5668 9.68035L16.9001 11.587C16.5468 11.8404 16.0401 11.687 15.8868 11.2804L14.6268 7.92035C14.4135 7.34035 13.5935 7.34035 13.3801 7.92035L12.1135 11.2737C11.9601 11.687 11.4601 11.8404 11.1068 11.5804L8.44015 9.67368C7.90681 9.30035 7.20015 9.82702 7.42015 10.447L10.1935 18.2137C10.2868 18.4803 10.5401 18.6537 10.8201 18.6537H17.1735C17.4535 18.6537 17.7068 18.4737 17.8001 18.2137L20.5735 10.447C20.8001 9.82702 20.0935 9.30035 19.5668 9.68035ZM15.6668 15.8337H12.3335C12.0601 15.8337 11.8335 15.607 11.8335 15.3337C11.8335 15.0604 12.0601 14.8337 12.3335 14.8337H15.6668C15.9401 14.8337 16.1668 15.0604 16.1668 15.3337C16.1668 15.607 15.9401 15.8337 15.6668 15.8337Z" fill="white"/>
<path d="M37.2 20V8.8H38.32V20H37.2ZM47.4516 15.048V20H46.3316V15.272C46.3316 14.8347 46.225 14.4373 46.0116 14.08C45.7983 13.7227 45.513 13.4373 45.1556 13.224C44.7983 13.0107 44.401 12.904 43.9636 12.904C43.5316 12.904 43.1343 13.0107 42.7716 13.224C42.4143 13.4373 42.129 13.7227 41.9156 14.08C41.7023 14.4373 41.5956 14.8347 41.5956 15.272V20H40.4756V12H41.5956V13.104C41.8783 12.6987 42.2463 12.376 42.6996 12.136C43.153 11.896 43.6463 11.776 44.1796 11.776C44.7823 11.776 45.3316 11.9227 45.8276 12.216C46.3236 12.5093 46.7183 12.904 47.0116 13.4C47.305 13.896 47.4516 14.4453 47.4516 15.048ZM51.5258 20.152C51.0884 20.1413 50.6618 20.0613 50.2458 19.912C49.8298 19.7627 49.4671 19.56 49.1578 19.304C48.8484 19.048 48.6271 18.7573 48.4938 18.432L49.4618 18.016C49.5471 18.224 49.7044 18.416 49.9338 18.592C50.1684 18.7627 50.4351 18.9013 50.7338 19.008C51.0324 19.1093 51.3284 19.16 51.6218 19.16C51.9471 19.16 52.2511 19.1067 52.5338 19C52.8164 18.8933 53.0458 18.7413 53.2218 18.544C53.4031 18.3413 53.4938 18.104 53.4938 17.832C53.4938 17.5387 53.3978 17.3093 53.2058 17.144C53.0138 16.9733 52.7711 16.84 52.4778 16.744C52.1844 16.6427 51.8831 16.5467 51.5738 16.456C51.0084 16.3013 50.5098 16.1307 50.0778 15.944C49.6458 15.7573 49.3071 15.52 49.0618 15.232C48.8218 14.9387 48.7018 14.5627 48.7018 14.104C48.7018 13.6187 48.8378 13.2 49.1098 12.848C49.3871 12.4907 49.7471 12.216 50.1898 12.024C50.6378 11.8267 51.1151 11.728 51.6218 11.728C52.2724 11.728 52.8644 11.8693 53.3978 12.152C53.9364 12.4347 54.3258 12.8107 54.5658 13.28L53.6618 13.816C53.5658 13.5973 53.4138 13.408 53.2058 13.248C52.9978 13.088 52.7604 12.9627 52.4938 12.872C52.2324 12.7813 51.9658 12.7333 51.6938 12.728C51.3524 12.7227 51.0351 12.7733 50.7418 12.88C50.4484 12.9813 50.2111 13.1333 50.0298 13.336C49.8538 13.5387 49.7658 13.7867 49.7658 14.08C49.7658 14.3733 49.8538 14.5973 50.0298 14.752C50.2058 14.9013 50.4431 15.024 50.7418 15.12C51.0458 15.2107 51.3871 15.3173 51.7658 15.44C52.2511 15.5947 52.7071 15.7707 53.1338 15.968C53.5604 16.1653 53.9044 16.4107 54.1658 16.704C54.4271 16.9973 54.5551 17.368 54.5498 17.816C54.5498 18.296 54.4058 18.7147 54.1178 19.072C53.8298 19.4293 53.4564 19.704 52.9978 19.896C52.5391 20.0827 52.0484 20.168 51.5258 20.152ZM55.8506 12H56.9706V20H55.8506V12ZM56.4186 10.6C56.2373 10.6 56.0826 10.5413 55.9546 10.424C55.832 10.3013 55.7706 10.1493 55.7706 9.968C55.7706 9.78667 55.832 9.63733 55.9546 9.52C56.0826 9.39733 56.2373 9.336 56.4186 9.336C56.5946 9.336 56.744 9.39733 56.8666 9.52C56.9946 9.63733 57.0586 9.78667 57.0586 9.968C57.0586 10.1493 56.9973 10.3013 56.8746 10.424C56.752 10.5413 56.6 10.6 56.4186 10.6ZM65.1794 12H66.2994V20.296C66.2994 20.808 66.1874 21.288 65.9634 21.736C65.7447 22.184 65.446 22.576 65.0674 22.912C64.694 23.2533 64.2674 23.52 63.7874 23.712C63.3074 23.904 62.8087 24 62.2914 24C61.7367 24 61.2007 23.872 60.6834 23.616C60.166 23.3653 59.7154 23.0293 59.3314 22.608C58.9527 22.1867 58.6834 21.72 58.5234 21.208L59.5554 20.736C59.6567 21.136 59.846 21.496 60.1234 21.816C60.406 22.1413 60.7367 22.3973 61.1154 22.584C61.4994 22.776 61.8914 22.872 62.2914 22.872C62.6594 22.872 63.014 22.8027 63.3554 22.664C63.702 22.5307 64.0114 22.3467 64.2834 22.112C64.5607 21.8773 64.7794 21.6027 64.9394 21.288C65.0994 20.9787 65.1794 20.648 65.1794 20.296V18.528C64.902 19.0293 64.526 19.4347 64.0514 19.744C63.582 20.0533 63.0354 20.208 62.4114 20.208C61.8514 20.208 61.3234 20.0987 60.8274 19.88C60.3367 19.6613 59.9047 19.36 59.5314 18.976C59.158 18.5867 58.8647 18.1387 58.6514 17.632C58.4434 17.1253 58.3394 16.5813 58.3394 16C58.3394 15.4187 58.4434 14.8747 58.6514 14.368C58.8647 13.856 59.158 13.408 59.5314 13.024C59.9047 12.6347 60.3367 12.3307 60.8274 12.112C61.3234 11.8933 61.8514 11.784 62.4114 11.784C63.0354 11.784 63.582 11.9387 64.0514 12.248C64.526 12.552 64.902 12.9573 65.1794 13.464V12ZM62.4194 19.12C62.974 19.12 63.4514 18.976 63.8514 18.688C64.2567 18.4 64.5687 18.0187 64.7874 17.544C65.006 17.0693 65.1154 16.5547 65.1154 16C65.1154 15.4293 65.0034 14.9093 64.7794 14.44C64.5607 13.9653 64.2487 13.5867 63.8434 13.304C63.438 13.016 62.9634 12.872 62.4194 12.872C61.8754 12.872 61.3794 13.0133 60.9314 13.296C60.4887 13.5733 60.1367 13.9493 59.8754 14.424C59.614 14.8987 59.4834 15.424 59.4834 16C59.4834 16.576 59.6167 17.1013 59.8834 17.576C60.15 18.0453 60.5047 18.4213 60.9474 18.704C61.3954 18.9813 61.886 19.12 62.4194 19.12ZM75.2016 15.048V20H74.0816V15.272C74.0816 14.8347 73.975 14.4373 73.7616 14.08C73.5483 13.7227 73.263 13.4373 72.9056 13.224C72.5483 13.0107 72.151 12.904 71.7136 12.904C71.2816 12.904 70.8843 13.0107 70.5216 13.224C70.1643 13.4373 69.879 13.7227 69.6656 14.08C69.4523 14.4373 69.3456 14.8347 69.3456 15.272V20H68.2256V8H69.3456V13.104C69.6283 12.6987 69.9963 12.376 70.4496 12.136C70.903 11.896 71.3963 11.776 71.9296 11.776C72.5323 11.776 73.0816 11.9227 73.5776 12.216C74.0736 12.5093 74.4683 12.904 74.7616 13.4C75.055 13.896 75.2016 14.4453 75.2016 15.048ZM80.8918 13.12H78.9798L78.9718 20H77.8518L77.8598 13.12H76.4118V12H77.8598L77.8518 9.488H78.9718L78.9798 12H80.8918V13.12ZM84.7289 20.152C84.2915 20.1413 83.8649 20.0613 83.4489 19.912C83.0329 19.7627 82.6702 19.56 82.3609 19.304C82.0515 19.048 81.8302 18.7573 81.6969 18.432L82.6649 18.016C82.7502 18.224 82.9075 18.416 83.1369 18.592C83.3715 18.7627 83.6382 18.9013 83.9369 19.008C84.2355 19.1093 84.5315 19.16 84.8249 19.16C85.1502 19.16 85.4542 19.1067 85.7369 19C86.0195 18.8933 86.2489 18.7413 86.4249 18.544C86.6062 18.3413 86.6969 18.104 86.6969 17.832C86.6969 17.5387 86.6009 17.3093 86.4089 17.144C86.2169 16.9733 85.9742 16.84 85.6809 16.744C85.3875 16.6427 85.0862 16.5467 84.7769 16.456C84.2115 16.3013 83.7129 16.1307 83.2809 15.944C82.8489 15.7573 82.5102 15.52 82.2649 15.232C82.0249 14.9387 81.9049 14.5627 81.9049 14.104C81.9049 13.6187 82.0409 13.2 82.3129 12.848C82.5902 12.4907 82.9502 12.216 83.3929 12.024C83.8409 11.8267 84.3182 11.728 84.8249 11.728C85.4755 11.728 86.0675 11.8693 86.6009 12.152C87.1395 12.4347 87.5289 12.8107 87.7689 13.28L86.8649 13.816C86.7689 13.5973 86.6169 13.408 86.4089 13.248C86.2009 13.088 85.9635 12.9627 85.6969 12.872C85.4355 12.7813 85.1689 12.7333 84.8969 12.728C84.5555 12.7227 84.2382 12.7733 83.9449 12.88C83.6515 12.9813 83.4142 13.1333 83.2329 13.336C83.0569 13.5387 82.9689 13.7867 82.9689 14.08C82.9689 14.3733 83.0569 14.5973 83.2329 14.752C83.4089 14.9013 83.6462 15.024 83.9449 15.12C84.2489 15.2107 84.5902 15.3173 84.9689 15.44C85.4542 15.5947 85.9102 15.7707 86.3369 15.968C86.7635 16.1653 87.1075 16.4107 87.3689 16.704C87.6302 16.9973 87.7582 17.368 87.7529 17.816C87.7529 18.296 87.6089 18.7147 87.3209 19.072C87.0329 19.4293 86.6595 19.704 86.2009 19.896C85.7422 20.0827 85.2515 20.168 84.7289 20.152Z" fill="#0A0A0A"/>
</svg>
