<svg width="32" height="32" viewBox="0 0 32 32" fill="none" xmlns="http://www.w3.org/2000/svg">
<g clip-path="url(#clip0_10767_2352)">
<path d="M15.0767 3.01974C15.4183 2.19844 16.5817 2.19844 16.9233 3.01973L19.9975 10.4109C20.1415 10.7572 20.4671 10.9937 20.8409 11.0237L28.8203 11.6634C29.707 11.7345 30.0665 12.841 29.3909 13.4197L23.3115 18.6274C23.0267 18.8713 22.9023 19.2541 22.9893 19.6189L24.8467 27.4054C25.0531 28.2706 24.1118 28.9545 23.3527 28.4908L16.5213 24.3182C16.2012 24.1227 15.7988 24.1227 15.4787 24.3182L8.64726 28.4908C7.88816 28.9545 6.94691 28.2706 7.1533 27.4054L9.01067 19.6189C9.09768 19.2541 8.97331 18.8713 8.68852 18.6274L2.60905 13.4197C1.93352 12.841 2.29304 11.7345 3.17969 11.6634L11.1591 11.0237C11.5329 10.9937 11.8585 10.7572 12.0025 10.4109L15.0767 3.01974Z" fill="#E5E7EB"/>
<g clip-path="url(#clip1_10767_2352)">
<path d="M15.0767 3.01974C15.4183 2.19844 16.5817 2.19844 16.9233 3.01973L19.9975 10.4109C20.1415 10.7572 20.4671 10.9937 20.8409 11.0237L28.8203 11.6634C29.707 11.7345 30.0665 12.841 29.3909 13.4197L23.3115 18.6274C23.0267 18.8713 22.9023 19.2541 22.9893 19.6189L24.8467 27.4054C25.0531 28.2706 24.1118 28.9545 23.3527 28.4908L16.5213 24.3182C16.2012 24.1227 15.7988 24.1227 15.4787 24.3182L8.64726 28.4908C7.88816 28.9545 6.94691 28.2706 7.1533 27.4054L9.01067 19.6189C9.09768 19.2541 8.97331 18.8713 8.68852 18.6274L2.60905 13.4197C1.93352 12.841 2.29304 11.7345 3.17969 11.6634L11.1591 11.0237C11.5329 10.9937 11.8585 10.7572 12.0025 10.4109L15.0767 3.01974Z" fill="#FBBF24"/>
</g>
</g>
<defs>
<clipPath id="clip0_10767_2352">
<rect width="32" height="32" fill="white"/>
</clipPath>
<clipPath id="clip1_10767_2352">
<rect width="32" height="32" fill="white"/>
</clipPath>
</defs>
</svg>
