<svg width="34" height="35" viewBox="0 0 34 35" fill="none" xmlns="http://www.w3.org/2000/svg">
<path d="M23.236 10.7828C25.0704 11.0257 26.966 10.2023 28.0852 8.47706C29.6831 6.01371 29.0933 2.64462 26.7677 0.951977C24.4421 -0.740662 21.2614 -0.115879 19.6635 2.34747C18.5442 4.07283 18.4983 6.24254 19.3703 7.96932C19.6172 8.45828 19.6485 9.05998 19.352 9.51701C19.0205 10.028 18.391 10.2014 17.8363 10.0036C14.0399 8.6493 9.70641 10.052 7.32528 13.7226C4.44891 18.1566 5.51063 24.221 9.69669 27.2677C12.9704 29.6504 17.1855 29.4819 20.2431 27.1745C20.7934 26.7592 21.5345 26.6909 22.0914 27.0962C22.5826 27.4537 22.7986 28.0938 22.7669 28.7242C22.6662 30.7261 23.5226 32.7344 25.1967 33.9528C27.7549 35.8147 31.2536 35.1275 33.0114 32.4178C34.7692 29.7081 34.1203 26.0021 31.5622 24.1402C29.5246 22.6572 26.8904 22.7914 25.0144 24.2766C24.6384 24.5743 24.1217 24.6342 23.7348 24.3526C23.3261 24.0551 23.1997 23.4814 23.3914 22.997C24.7153 19.6519 24.1559 15.796 21.9932 13.0291C21.6198 12.5515 21.547 11.8669 21.8785 11.3558C22.175 10.8988 22.7165 10.7139 23.236 10.7828Z" fill="#0A0A0A"/>
<path d="M1.55133 30.7529C3.17924 31.9377 5.40572 31.5004 6.52431 29.776C7.64289 28.0517 7.23 25.6933 5.60209 24.5085C3.97418 23.3236 1.7477 23.761 0.629118 25.4853C-0.489469 27.2097 -0.0765792 29.568 1.55133 30.7529Z" fill="#0A0A0A"/>
</svg>
