<svg width="114" height="21" viewBox="0 0 114 21" fill="none" xmlns="http://www.w3.org/2000/svg">
<path d="M106.859 18.417C105.163 18.417 103.883 17.921 103.019 16.929C102.155 15.921 101.723 14.633 101.723 13.065C101.723 11.625 102.027 10.313 102.635 9.12901C103.259 7.94501 104.131 7.00901 105.251 6.32101C106.371 5.61701 107.659 5.26501 109.115 5.26501C110.715 5.26501 111.891 5.60901 112.643 6.29701C113.411 6.96901 113.795 7.79301 113.795 8.76901C113.795 9.44101 113.611 10.073 113.243 10.665C112.875 11.257 112.299 11.737 111.515 12.105C110.747 12.473 109.779 12.657 108.611 12.657H104.507L104.483 12.849C104.467 12.961 104.459 13.121 104.459 13.329C104.459 14.097 104.699 14.753 105.179 15.297C105.675 15.825 106.331 16.089 107.147 16.089C107.803 16.089 108.403 15.921 108.947 15.585C109.491 15.249 109.915 14.801 110.219 14.241H113.075C112.563 15.473 111.779 16.481 110.723 17.265C109.667 18.033 108.379 18.417 106.859 18.417ZM108.563 10.737C109.427 10.737 110.059 10.569 110.459 10.233C110.859 9.88101 111.059 9.47301 111.059 9.00901C111.059 8.57701 110.875 8.20901 110.507 7.90501C110.155 7.58501 109.595 7.42501 108.827 7.42501C107.787 7.42501 106.915 7.72101 106.211 8.31301C105.507 8.90501 105.059 9.71301 104.867 10.737H108.563Z" fill="black"/>
<path d="M91.8743 18.561C90.5143 18.561 89.4743 18.129 88.7543 17.265C88.0503 16.385 87.6983 15.209 87.6983 13.737C87.6983 12.185 87.9783 10.777 88.5383 9.51297C89.1143 8.23297 89.8903 7.22497 90.8663 6.48897C91.8423 5.75297 92.9223 5.38497 94.1063 5.38497C95.2103 5.38497 96.0343 5.64097 96.5783 6.15297C97.1383 6.64897 97.5063 7.20097 97.6823 7.80897H97.8743L99.1223 0.344971H102.05L99.0503 18.369H96.1223L96.5303 16.041H96.3383C95.9063 16.697 95.3223 17.281 94.5863 17.793C93.8663 18.305 92.9623 18.561 91.8743 18.561ZM93.2903 16.209C94.0103 16.209 94.6743 15.969 95.2823 15.489C95.8903 15.009 96.3703 14.361 96.7223 13.545C97.0903 12.713 97.2743 11.809 97.2743 10.833C97.2743 9.93697 97.0583 9.20897 96.6263 8.64897C96.2103 8.08897 95.5703 7.80897 94.7063 7.80897C93.9703 7.80897 93.2903 8.04897 92.6663 8.52897C92.0583 8.99297 91.5783 9.63297 91.2263 10.449C90.8743 11.265 90.6983 12.177 90.6983 13.185C90.6983 14.081 90.9063 14.809 91.3223 15.369C91.7543 15.929 92.4103 16.209 93.2903 16.209Z" fill="black"/>
<path d="M84.0158 5.69698H86.9198L84.8078 18.369H81.9038L84.0158 5.69698ZM85.7918 3.46498C85.3758 3.46498 85.0398 3.33698 84.7838 3.08098C84.5278 2.80898 84.3998 2.47298 84.3998 2.07298C84.3998 1.56098 84.5998 1.10498 84.9998 0.70498C85.3998 0.30498 85.8638 0.10498 86.3918 0.10498C86.8238 0.10498 87.1678 0.24098 87.4238 0.51298C87.6798 0.76898 87.8078 1.09698 87.8078 1.49698C87.8078 2.00898 87.5998 2.46498 87.1838 2.86498C86.7838 3.26498 86.3198 3.46498 85.7918 3.46498Z" fill="black"/>
<path d="M77.2491 14.193C77.1531 14.769 77.1051 15.145 77.1051 15.321C77.1051 15.673 77.2171 15.937 77.4411 16.113C77.6651 16.273 78.0731 16.353 78.6651 16.353C78.9371 16.353 79.3131 16.313 79.7931 16.233L79.4571 18.273C79.3611 18.305 79.0811 18.345 78.6171 18.393C78.1531 18.441 77.7051 18.465 77.2731 18.465C76.0731 18.465 75.2411 18.273 74.7771 17.889C74.3131 17.489 74.0811 16.929 74.0811 16.209C74.0811 15.761 74.1291 15.297 74.2251 14.817L75.3771 7.97697H73.1931L73.5531 5.69697H75.7611L76.4571 1.56897H79.3371L78.6651 5.69697H81.5451L81.1851 7.97697H78.2811L77.2491 14.193Z" fill="black"/>
<path d="M61.7265 0.512939H64.6545L63.4305 7.76094H63.6225C64.0385 7.10494 64.6145 6.54494 65.3505 6.08094C66.1025 5.61694 66.9585 5.38494 67.9185 5.38494C69.2785 5.38494 70.2545 5.76894 70.8465 6.53694C71.4385 7.30494 71.7345 8.26494 71.7345 9.41694C71.7345 9.89694 71.7025 10.3049 71.6385 10.6409L70.3425 18.3689H67.4385L68.6625 11.0969C68.7105 10.7769 68.7345 10.4889 68.7345 10.2329C68.7345 9.46494 68.5265 8.87294 68.1105 8.45694C67.6945 8.04094 67.1025 7.83294 66.3345 7.83294C65.4705 7.83294 64.7185 8.12894 64.0785 8.72094C63.4545 9.31294 63.0625 10.1049 62.9025 11.0969L61.6785 18.3689H58.7505L61.7265 0.512939Z" fill="black"/>
<path d="M51.2522 18.561C49.5402 18.561 48.2682 18.073 47.4362 17.097C46.6202 16.105 46.2122 14.865 46.2122 13.377C46.2122 11.985 46.5082 10.681 47.1002 9.46501C47.7082 8.23301 48.5642 7.24901 49.6682 6.51301C50.7722 5.76101 52.0282 5.38501 53.4362 5.38501C55.1002 5.38501 56.3402 5.86501 57.1562 6.82501C57.9722 7.78501 58.3642 8.98501 58.3322 10.425H55.5002C55.5162 9.64101 55.3162 9.00901 54.9002 8.52901C54.5002 8.03301 53.8922 7.78501 53.0762 7.78501C52.3242 7.78501 51.6362 8.02501 51.0122 8.50501C50.4042 8.98501 49.9242 9.64101 49.5722 10.473C49.2362 11.305 49.0682 12.233 49.0682 13.257C49.0682 14.121 49.2762 14.825 49.6922 15.369C50.1242 15.913 50.7802 16.185 51.6602 16.185C52.4762 16.185 53.1642 15.937 53.7242 15.441C54.3002 14.945 54.7162 14.305 54.9722 13.521H57.8042C57.3562 14.961 56.5642 16.161 55.4282 17.121C54.3082 18.081 52.9162 18.561 51.2522 18.561Z" fill="black"/>
<path d="M38.5224 18.417C36.8264 18.417 35.5464 17.921 34.6824 16.929C33.8184 15.921 33.3864 14.633 33.3864 13.065C33.3864 11.625 33.6904 10.313 34.2984 9.12901C34.9224 7.94501 35.7944 7.00901 36.9144 6.32101C38.0344 5.61701 39.3224 5.26501 40.7784 5.26501C42.3784 5.26501 43.5544 5.60901 44.3064 6.29701C45.0744 6.96901 45.4584 7.79301 45.4584 8.76901C45.4584 9.44101 45.2744 10.073 44.9064 10.665C44.5384 11.257 43.9624 11.737 43.1784 12.105C42.4104 12.473 41.4424 12.657 40.2744 12.657H36.1704L36.1464 12.849C36.1304 12.961 36.1224 13.121 36.1224 13.329C36.1224 14.097 36.3624 14.753 36.8424 15.297C37.3384 15.825 37.9944 16.089 38.8104 16.089C39.4664 16.089 40.0664 15.921 40.6104 15.585C41.1544 15.249 41.5784 14.801 41.8824 14.241H44.7384C44.2264 15.473 43.4424 16.481 42.3864 17.265C41.3304 18.033 40.0424 18.417 38.5224 18.417ZM40.2264 10.737C41.0904 10.737 41.7224 10.569 42.1224 10.233C42.5224 9.88101 42.7224 9.47301 42.7224 9.00901C42.7224 8.57701 42.5384 8.20901 42.1704 7.90501C41.8184 7.58501 41.2584 7.42501 40.4904 7.42501C39.4504 7.42501 38.5784 7.72101 37.8744 8.31301C37.1704 8.90501 36.7224 9.71301 36.5304 10.737H40.2264Z" fill="black"/>
<path d="M29.1056 14.193C29.0096 14.769 28.9616 15.145 28.9616 15.321C28.9616 15.673 29.0736 15.937 29.2976 16.113C29.5216 16.273 29.9296 16.353 30.5216 16.353C30.7936 16.353 31.1696 16.313 31.6496 16.233L31.3136 18.273C31.2176 18.305 30.9376 18.345 30.4736 18.393C30.0096 18.441 29.5616 18.465 29.1296 18.465C27.9296 18.465 27.0976 18.273 26.6336 17.889C26.1696 17.489 25.9376 16.929 25.9376 16.209C25.9376 15.761 25.9856 15.297 26.0816 14.817L27.2336 7.97697H25.0496L25.4096 5.69697H27.6176L28.3136 1.56897H31.1936L30.5216 5.69697H33.4016L33.0416 7.97697H30.1376L29.1056 14.193Z" fill="black"/>
<g clip-path="url(#clip0_53_154)">
<path d="M13.1628 0.369019H8.04044C7.87581 2.28561 7.03921 4.08251 5.67822 5.44272C4.31723 6.80294 2.51931 7.63907 0.601627 7.8036L0.601627 12.9231C2.52109 13.088 4.32043 13.9257 5.68166 15.2883C7.04288 16.6508 7.87836 18.4504 8.04044 20.369H13.1628C13.3276 18.453 14.1644 16.6569 15.5255 15.2976C16.8866 13.9383 18.6844 13.1034 20.6016 12.9401V7.82067C18.6817 7.65446 16.8822 6.81553 15.5211 5.45206C14.16 4.08858 13.3247 2.28825 13.1628 0.369019ZM17.4144 11.0118C16.0118 11.5517 14.7373 12.3778 13.6721 13.4375C12.6068 14.4973 11.7743 15.7673 11.2277 17.1665L10.6016 18.7991L9.96987 17.1665C9.42698 15.7662 8.59718 14.4949 7.53372 13.434C6.47027 12.3731 5.19664 11.5461 3.79457 11.0061L2.14972 10.369L3.79457 9.73762C5.19662 9.19645 6.47041 8.36912 7.53465 7.30843C8.59889 6.24773 9.43021 4.97696 9.97556 3.57721L10.6073 1.94467L11.2334 3.57721C11.7781 4.97802 12.6091 6.24989 13.6734 7.3116C14.7376 8.37331 16.0118 9.20151 17.4144 9.74331L19.0535 10.3747L17.4144 11.0118Z" fill="#584BF7"/>
</g>
<defs>
<clipPath id="clip0_53_154">
<rect width="20" height="20" fill="white" transform="translate(0.601627 0.369019)"/>
</clipPath>
</defs>
</svg>
