<svg width="125" height="19" viewBox="0 0 125 19" fill="none" xmlns="http://www.w3.org/2000/svg">
<path d="M110.554 12.298C110.554 11.31 110.727 10.4173 111.074 9.61997C111.438 8.8053 111.923 8.11197 112.53 7.53997C113.136 6.96797 113.856 6.52597 114.688 6.21397C115.52 5.90197 116.404 5.74597 117.34 5.74597C118.276 5.74597 119.16 5.90197 119.992 6.21397C120.824 6.52597 121.543 6.96797 122.15 7.53997C122.756 8.11197 123.233 8.8053 123.58 9.61997C123.944 10.4173 124.126 11.31 124.126 12.298C124.126 13.286 123.944 14.1873 123.58 15.002C123.233 15.8166 122.756 16.5186 122.15 17.108C121.543 17.68 120.824 18.1306 119.992 18.46C119.16 18.7893 118.276 18.954 117.34 18.954C116.404 18.954 115.52 18.7893 114.688 18.46C113.856 18.1306 113.136 17.68 112.53 17.108C111.923 16.5186 111.438 15.8166 111.074 15.002C110.727 14.1873 110.554 13.286 110.554 12.298ZM113.726 12.298C113.726 12.7833 113.795 13.2686 113.934 13.754C114.09 14.2393 114.315 14.6726 114.61 15.054C114.904 15.4353 115.277 15.7473 115.728 15.99C116.178 16.2326 116.716 16.354 117.34 16.354C117.964 16.354 118.501 16.2326 118.952 15.99C119.402 15.7473 119.775 15.4353 120.07 15.054C120.364 14.6726 120.581 14.2393 120.72 13.754C120.876 13.2686 120.954 12.7833 120.954 12.298C120.954 11.8126 120.876 11.336 120.72 10.868C120.581 10.3826 120.364 9.94931 120.07 9.56797C119.775 9.18664 119.402 8.8833 118.952 8.65797C118.501 8.4153 117.964 8.29397 117.34 8.29397C116.716 8.29397 116.178 8.4153 115.728 8.65797C115.277 8.8833 114.904 9.18664 114.61 9.56797C114.315 9.94931 114.09 10.3826 113.934 10.868C113.795 11.336 113.726 11.8126 113.726 12.298Z" fill="#101814"/>
<path d="M105.417 6.11H108.537V18.59H105.417V6.11ZM104.975 1.872C104.975 1.36933 105.157 0.936 105.521 0.572001C105.902 0.190667 106.379 0 106.951 0C107.523 0 107.999 0.182 108.381 0.546001C108.779 0.892667 108.979 1.33467 108.979 1.872C108.979 2.40933 108.779 2.86 108.381 3.224C107.999 3.57067 107.523 3.744 106.951 3.744C106.379 3.744 105.902 3.562 105.521 3.198C105.157 2.81667 104.975 2.37467 104.975 1.872Z" fill="#101814"/>
<path d="M91.2025 6.10999H94.6085L97.8845 15.21H97.9365L101.238 6.10999H104.541L99.5745 18.59H96.2465L91.2025 6.10999Z" fill="#101814"/>
<path d="M77.5174 12.298C77.5174 11.31 77.6907 10.4173 78.0374 9.61997C78.4014 8.8053 78.8867 8.11197 79.4934 7.53997C80.1 6.96797 80.8194 6.52597 81.6514 6.21397C82.4834 5.90197 83.3674 5.74597 84.3034 5.74597C85.2394 5.74597 86.1234 5.90197 86.9554 6.21397C87.7874 6.52597 88.5067 6.96797 89.1134 7.53997C89.72 8.11197 90.1967 8.8053 90.5434 9.61997C90.9074 10.4173 91.0894 11.31 91.0894 12.298C91.0894 13.286 90.9074 14.1873 90.5434 15.002C90.1967 15.8166 89.72 16.5186 89.1134 17.108C88.5067 17.68 87.7874 18.1306 86.9554 18.46C86.1234 18.7893 85.2394 18.954 84.3034 18.954C83.3674 18.954 82.4834 18.7893 81.6514 18.46C80.8194 18.1306 80.1 17.68 79.4934 17.108C78.8867 16.5186 78.4014 15.8166 78.0374 15.002C77.6907 14.1873 77.5174 13.286 77.5174 12.298ZM80.6894 12.298C80.6894 12.7833 80.7587 13.2686 80.8974 13.754C81.0534 14.2393 81.2787 14.6726 81.5734 15.054C81.868 15.4353 82.2407 15.7473 82.6914 15.99C83.142 16.2326 83.6794 16.354 84.3034 16.354C84.9274 16.354 85.4647 16.2326 85.9154 15.99C86.366 15.7473 86.7387 15.4353 87.0334 15.054C87.328 14.6726 87.5447 14.2393 87.6834 13.754C87.8394 13.2686 87.9174 12.7833 87.9174 12.298C87.9174 11.8126 87.8394 11.336 87.6834 10.868C87.5447 10.3826 87.328 9.94931 87.0334 9.56797C86.7387 9.18664 86.366 8.8833 85.9154 8.65797C85.4647 8.4153 84.9274 8.29397 84.3034 8.29397C83.6794 8.29397 83.142 8.4153 82.6914 8.65797C82.2407 8.8833 81.868 9.18664 81.5734 9.56797C81.2787 9.94931 81.0534 10.3826 80.8974 10.868C80.7587 11.336 80.6894 11.8126 80.6894 12.298Z" fill="#101814"/>
<path d="M64.1525 6.10997H67.1166V8.11197H67.1686C67.4459 7.48797 67.9226 6.94197 68.5986 6.47397C69.2919 5.98864 70.1066 5.74597 71.0426 5.74597C71.8572 5.74597 72.5506 5.89331 73.1226 6.18797C73.7119 6.46531 74.1886 6.83797 74.5526 7.30597C74.9339 7.77397 75.2112 8.3113 75.3846 8.91797C75.5579 9.52464 75.6446 10.1486 75.6446 10.79V18.59H72.5246V11.674C72.5246 11.31 72.4986 10.9286 72.4466 10.53C72.3946 10.1313 72.2819 9.77597 72.1086 9.46397C71.9352 9.13464 71.6926 8.86597 71.3806 8.65797C71.0859 8.44997 70.6872 8.34597 70.1846 8.34597C69.6819 8.34597 69.2486 8.44997 68.8846 8.65797C68.5206 8.84864 68.2172 9.09997 67.9746 9.41197C67.7492 9.72397 67.5759 10.088 67.4545 10.504C67.3332 10.9026 67.2726 11.31 67.2726 11.726V18.59H64.1525V6.10997Z" fill="#101814"/>
<path d="M50.0597 6.10997H53.0237V8.11197H53.0757C53.3531 7.48797 53.8297 6.94197 54.5057 6.47397C55.1991 5.98864 56.0137 5.74597 56.9497 5.74597C57.7644 5.74597 58.4577 5.89331 59.0297 6.18797C59.6191 6.46531 60.0957 6.83797 60.4597 7.30597C60.8411 7.77397 61.1184 8.3113 61.2917 8.91797C61.4651 9.52464 61.5517 10.1486 61.5517 10.79V18.59H58.4317V11.674C58.4317 11.31 58.4057 10.9286 58.3537 10.53C58.3017 10.1313 58.1891 9.77597 58.0157 9.46397C57.8424 9.13464 57.5997 8.86597 57.2877 8.65797C56.9931 8.44997 56.5944 8.34597 56.0917 8.34597C55.5891 8.34597 55.1557 8.44997 54.7917 8.65797C54.4277 8.84864 54.1244 9.09997 53.8817 9.41197C53.6564 9.72397 53.4831 10.088 53.3617 10.504C53.2404 10.9026 53.1797 11.31 53.1797 11.726V18.59H50.0597V6.10997Z" fill="#101814"/>
<path d="M44.1947 6.11H47.3147V18.59H44.1947V6.11ZM43.7527 1.872C43.7527 1.36933 43.9347 0.936 44.2987 0.572001C44.68 0.190667 45.1567 0 45.7287 0C46.3007 0 46.7774 0.182 47.1587 0.546001C47.5574 0.892667 47.7567 1.33467 47.7567 1.872C47.7567 2.40933 47.5574 2.86 47.1587 3.224C46.7774 3.57067 46.3007 3.744 45.7287 3.744C45.1567 3.744 44.68 3.562 44.2987 3.198C43.9347 2.81667 43.7527 2.37467 43.7527 1.872Z" fill="#101814"/>
<path d="M17.8038 0.589966H16.7498V12.4646H17.8038V0.589966Z" fill="#81B29A"/>
<path d="M24.2349 2.07756L23.2606 1.67542L18.7333 12.6525L19.7077 13.0546L24.2349 2.07756Z" fill="#81B29A"/>
<path d="M29.6291 5.89951L28.8818 5.15588L20.5103 13.5745L21.2576 14.3181L29.6291 5.89951Z" fill="#81B29A"/>
<path d="M33.1508 11.5001L32.7436 10.5276L21.7952 15.1158L22.2025 16.0883L33.1508 11.5001Z" fill="#81B29A"/>
<path d="M34.2707 18.0217L34.265 16.9673L22.3949 17.0315L22.4006 18.0859L34.2707 18.0217Z" fill="#81B29A"/>
<path d="M0.270712 17.286L0.291792 18.3405L12.162 18.103L12.141 17.0486L0.270712 17.286Z" fill="#81B29A"/>
<path d="M1.67609 10.8552L1.28962 11.8362L12.3331 16.1902L12.7196 15.2092L1.67609 10.8552Z" fill="#81B29A"/>
<path d="M5.42127 5.41849L4.68988 6.17773L13.2372 14.4176L13.9686 13.6584L5.42127 5.41849Z" fill="#81B29A"/>
<path d="M10.9545 1.80205L9.98895 2.22485L14.7488 13.103L15.7144 12.6802L10.9545 1.80205Z" fill="#81B29A"/>
<path d="M21.0662 0.991611L19.7111 7.93312C19.3679 7.8469 19.0202 7.77985 18.6696 7.73228L20.0248 0.790771L21.0662 0.991611Z" fill="#81B29A"/>
<path d="M27.1017 3.69043L23.1994 9.59009C22.9173 9.38173 22.6241 9.18898 22.321 9.01267L26.2234 3.10046L27.1017 3.69043Z" fill="#81B29A"/>
<path d="M31.6566 8.48548L25.7968 12.4521C25.6086 12.1508 25.4203 11.8495 25.207 11.5734L31.0543 7.60681L31.6566 8.48548Z" fill="#81B29A"/>
<path d="M34.0282 14.6487L27.1018 16.0797C27.0573 15.7316 26.986 15.3874 26.8885 15.0504L33.8148 13.6194L34.0282 14.6487Z" fill="#81B29A"/>
<path d="M7.58988 15.3014C7.51205 15.6409 7.4534 15.9845 7.41421 16.3307L0.475262 15.0754L0.663479 14.0336L7.58988 15.3014Z" fill="#81B29A"/>
<path d="M9.196 11.7742C8.99524 12.0629 8.80702 12.3516 8.63135 12.6654L2.69623 8.89967L3.26088 8.021L9.196 11.7742Z" fill="#81B29A"/>
<path d="M12.0318 9.13813C11.7278 9.31585 11.4383 9.51732 11.166 9.74064L7.11307 3.95396L7.97887 3.35144L12.0318 9.13813Z" fill="#81B29A"/>
<path d="M15.6456 7.76994C15.2942 7.76994 14.9429 7.90802 14.6167 7.99589L13.0733 1.10459L14.0896 0.866089L15.6456 7.76994Z" fill="#81B29A"/>
</svg>
