<svg width="123" height="25" viewBox="0 0 123 25" fill="none" xmlns="http://www.w3.org/2000/svg">
<path d="M105.628 19.9812V8.83024H108.211V10.3632C109.072 9.41824 110.332 8.62024 112.033 8.62024C113.902 8.62024 114.637 9.35524 115.078 10.4472C115.96 9.48124 117.283 8.62024 118.984 8.62024C121.252 8.62024 122.239 9.98524 122.239 11.9802V19.9812H119.656V12.6312C119.656 11.3922 119.299 10.8252 118.081 10.8252C117.031 10.8252 116.191 11.4132 115.225 12.2742V19.9812H112.642V12.6312C112.642 11.3922 112.285 10.8252 111.067 10.8252C110.038 10.8252 109.177 11.4132 108.211 12.2742V19.9812H105.628Z" fill="#001524"/>
<path d="M96.8199 20.1492C95.0139 20.1492 93.6699 19.1412 93.6699 17.2932C93.6699 14.8782 95.7279 13.2612 100.936 12.6732V12.3372C100.936 11.2242 100.348 10.7412 99.1089 10.7412C97.5549 10.7412 96.2949 11.4972 95.3499 12.2532L94.0899 10.6362C95.2869 9.54424 97.1559 8.62024 99.4659 8.62024C102.448 8.62024 103.477 10.0482 103.477 12.6522V17.2512C103.477 18.5952 103.561 19.4142 103.792 19.9812H101.188C101.041 19.5192 100.936 19.1832 100.936 18.5532C99.8019 19.7082 98.4789 20.1492 96.8199 20.1492ZM97.7649 18.1542C99.0879 18.1542 100.117 17.6502 100.936 16.8732V14.4162C97.8489 14.8362 96.2109 15.5922 96.2109 16.8102C96.2109 17.6922 96.8199 18.1542 97.7649 18.1542Z" fill="#001524"/>
<path d="M86.7082 19.9812V8.83024H89.2912V10.6572H89.3332C90.0262 9.54424 91.2232 8.62024 93.3442 8.62024H93.5122L93.4282 10.9932C93.3022 10.9722 92.8822 10.9512 92.7352 10.9512C91.0762 10.9512 90.0262 11.7282 89.2912 12.9252V19.9812H86.7082Z" fill="#001524"/>
<path d="M79.213 24.3072C75.37 24.3072 73.837 23.1942 73.837 21.5772C73.837 20.4642 74.53 19.6662 75.664 19.2252C75.097 18.9312 74.803 18.4692 74.803 17.8602C74.803 17.0202 75.475 16.3272 76.315 15.8232C75.181 15.1092 74.551 13.9752 74.551 12.6102C74.551 10.3212 76.315 8.62024 79.234 8.62024C80.767 8.62024 81.901 9.12424 82.657 9.79624C83.371 9.22924 84.505 8.78824 85.429 8.70424V10.8042C84.925 10.8042 84.211 10.8672 83.476 11.0982C83.728 11.4972 83.875 12.0222 83.875 12.6102C83.875 14.9412 82.132 16.5792 79.234 16.5792C78.604 16.5792 78.226 16.4952 77.68 16.3482C77.344 16.5372 77.113 16.7682 77.113 17.0622C77.113 17.5032 77.407 17.6502 78.394 17.7342L80.368 17.8602C83.665 18.0702 84.967 18.9522 84.967 20.9052C84.967 23.1942 82.657 24.3072 79.213 24.3072ZM79.276 14.7942C80.683 14.7942 81.523 14.0592 81.523 12.6942C81.523 11.3082 80.725 10.5522 79.255 10.5522C77.827 10.5522 76.987 11.3292 76.987 12.6942C76.987 14.0592 77.848 14.7942 79.276 14.7942ZM79.612 22.4382C81.502 22.4382 82.678 21.9342 82.678 21.1362C82.678 20.3382 82.111 20.0442 79.843 19.8972L77.911 19.7712C77.68 19.7712 77.47 19.7502 77.239 19.7082C76.504 20.0442 76.21 20.5692 76.21 21.1362C76.21 22.1232 77.344 22.4382 79.612 22.4382Z" fill="#001524"/>
<path d="M71.4993 20.1282C68.6643 20.1282 68.0553 19.0782 68.0553 17.0622V10.8882H66.1233V8.83019H68.0553V4.94519H70.6383V8.83019H73.5153V10.8882H70.6383V16.4112C70.6383 17.6082 70.9953 18.0912 72.2763 18.0912C72.6543 18.0912 73.1373 18.0282 73.3893 17.9442V19.9812C73.1163 20.0442 72.1503 20.1282 71.4993 20.1282Z" fill="#001524"/>
<path d="M60.9148 19.9812V10.8882H58.9828V8.83017H60.9148V7.69617C60.9148 5.82717 61.6918 4.37817 64.5268 4.37817C65.0098 4.37817 65.8708 4.46217 66.0598 4.48317V6.47817C65.8918 6.43617 65.4718 6.39417 65.1778 6.39417C64.2538 6.39417 63.4978 6.64617 63.4978 7.84317V8.83017H65.9338V10.8882H63.4978V19.9812H60.9148Z" fill="#001524"/>
<path d="M51.1408 20.1492C49.3348 20.1492 47.9908 19.1412 47.9908 17.2932C47.9908 14.8782 50.0488 13.2612 55.2568 12.6732V12.3372C55.2568 11.2242 54.6688 10.7412 53.4298 10.7412C51.8758 10.7412 50.6158 11.4972 49.6708 12.2532L48.4108 10.6362C49.6078 9.54424 51.4768 8.62024 53.7868 8.62024C56.7688 8.62024 57.7978 10.0482 57.7978 12.6522V17.2512C57.7978 18.5952 57.8818 19.4142 58.1128 19.9812H55.5088C55.3618 19.5192 55.2568 19.1832 55.2568 18.5532C54.1228 19.7082 52.7998 20.1492 51.1408 20.1492ZM52.0858 18.1542C53.4088 18.1542 54.4378 17.6502 55.2568 16.8732V14.4162C52.1698 14.8362 50.5318 15.5922 50.5318 16.8102C50.5318 17.6922 51.1408 18.1542 52.0858 18.1542Z" fill="#001524"/>
<path d="M41.0291 19.9812V8.83024H43.6121V10.6572H43.6541C44.3471 9.54424 45.5441 8.62024 47.6651 8.62024H47.8331L47.7491 10.9932C47.6231 10.9722 47.2031 10.9512 47.0561 10.9512C45.3971 10.9512 44.3471 11.7282 43.6121 12.9252V19.9812H41.0291Z" fill="#001524"/>
<path d="M32.9904 20.2752C29.0004 20.2752 26.1654 17.5242 26.1654 12.1692C26.1654 6.96122 29.0844 4.14722 32.9904 4.14722C36.6024 4.14722 38.3244 6.14222 39.0174 8.97722L36.5184 9.69122C35.9304 7.63322 35.0274 6.58322 32.9694 6.58322C30.3444 6.58322 28.8114 8.62022 28.8114 12.1482C28.8114 15.8442 30.3864 17.8812 33.0114 17.8812C35.0274 17.8812 36.1614 16.8732 36.7494 14.5422L39.2484 15.1092C38.4924 18.1962 36.5814 20.2752 32.9904 20.2752Z" fill="#001524"/>
<g clip-path="url(#clip0_53_206)">
<path d="M10.6544 0.981201V11.4812L6.07467 6.90014C5.64902 6.47108 5.40887 5.89197 5.40591 5.28752V0.981201H10.6544Z" fill="#00CECB"/>
<path d="M21.1574 11.4812H10.6544L15.2402 6.90013C15.4538 6.68426 15.7089 6.51375 15.99 6.39881C16.2711 6.28386 16.5725 6.22685 16.8762 6.23119H21.1813L21.1574 11.4812Z" fill="#00CECB"/>
<path d="M10.6544 21.9812V11.4812L15.2342 16.0682C15.4503 16.2818 15.6209 16.5368 15.7358 16.8181C15.8508 17.0993 15.9076 17.4009 15.9029 17.7048V22.0111L10.6544 21.9812Z" fill="#00CECB"/>
<path d="M0.157402 11.4812H10.6544L6.07466 16.0623C5.64719 16.4902 5.06729 16.7308 4.46249 16.7312H0.157402V11.4812Z" fill="#00CECB"/>
</g>
<defs>
<clipPath id="clip0_53_206">
<rect width="21" height="21" fill="white" transform="translate(0.157402 0.981201)"/>
</clipPath>
</defs>
</svg>
