<svg width="92" height="19" viewBox="0 0 92 19" fill="none" xmlns="http://www.w3.org/2000/svg">
<path d="M85.075 0.57959H91.5262V3.03174H87.5623V5.67725H90.9725V8.13818H87.5623V15.3716H91.5262V17.8237H85.075V0.57959Z" fill="black"/>
<path d="M75.2755 0.57959H77.7628L80.1183 10.5815V0.57959H82.4211V17.8237H79.9337L77.6662 8.13818V17.8237H75.2755V0.57959Z" fill="black"/>
<path d="M69.1411 4.53467L67.3833 17.8237H64.8784L67.4448 0.57959H70.855L73.4126 17.8237H70.8989L69.1411 4.53467Z" fill="black"/>
<path d="M57.3641 17.8237V0.57959H59.8514V15.3716H63.8153V17.8237H57.3641Z" fill="black"/>
<path d="M47.5647 0.57959H50.052V10.2036H52.2229V0.57959H54.7102V17.8237H52.2229V12.6646H50.052V17.8237H47.5647V0.57959Z" fill="black"/>
<path d="M42.6871 5.64209V3.93701C42.6871 3.15771 42.3238 2.76807 41.5973 2.76807C40.8766 2.76807 40.5162 3.15771 40.5162 3.93701V14.4839C40.5162 15.2632 40.8736 15.6528 41.5885 15.6528H41.606C42.3268 15.647 42.6871 15.2573 42.6871 14.4839V12.1636H45.1744V14.4839C45.1744 16.8979 43.982 18.105 41.5973 18.105C39.2184 18.105 38.0289 16.8979 38.0289 14.4839V3.93701C38.0289 1.51709 39.2184 0.307129 41.5973 0.307129C43.982 0.312988 45.1744 1.52295 45.1744 3.93701V5.64209H42.6871Z" fill="black"/>
<path d="M28.4052 0.57959H30.8925L33.248 10.5815V0.57959H35.5507V17.8237H33.0634L30.7959 8.13818V17.8237H28.4052V0.57959Z" fill="black"/>
<path d="M25.8392 14.4751C25.8392 16.8892 24.6468 18.0991 22.262 18.105C19.8831 18.105 18.6937 16.895 18.6937 14.4751V0.57959H21.181V14.4751C21.181 15.2544 21.5413 15.644 22.262 15.644C22.9886 15.644 23.3519 15.2544 23.3519 14.4751V0.57959H25.8392V14.4751Z" fill="black"/>
<path d="M12.6471 4.53467L10.8893 17.8237H8.38445L10.9509 0.57959H14.361L16.9186 17.8237H14.405L12.6471 4.53467Z" fill="black"/>
<path d="M0.870152 17.8237V0.57959H3.35746V15.3716H7.32132V17.8237H0.870152Z" fill="black"/>
</svg>
