<svg width="131" height="27" viewBox="0 0 131 27" fill="none" xmlns="http://www.w3.org/2000/svg">
<path d="M120.364 11.7731C120.364 10.6211 120.796 9.7171 121.66 9.0611C122.524 8.3891 123.708 8.0531 125.212 8.0531C126.732 8.0531 127.916 8.3891 128.764 9.0611C129.628 9.7171 130.076 10.6371 130.108 11.8211H127.54C127.524 11.3091 127.308 10.9091 126.892 10.6211C126.492 10.3171 125.956 10.1651 125.284 10.1651C124.516 10.1651 123.924 10.2931 123.508 10.5491C123.108 10.8051 122.908 11.1811 122.908 11.6771C122.908 12.1571 123.092 12.5251 123.46 12.7811C123.828 13.0211 124.292 13.2131 124.852 13.3571C125.412 13.4851 126.012 13.6131 126.652 13.7411C127.292 13.8531 127.892 14.0371 128.452 14.2931C129.012 14.5331 129.476 14.8771 129.844 15.3251C130.212 15.7571 130.396 16.3651 130.396 17.1491C130.396 18.3171 129.964 19.2371 129.1 19.9091C128.236 20.5651 126.996 20.8931 125.38 20.8931C123.7 20.8931 122.396 20.5491 121.468 19.8611C120.556 19.1731 120.1 18.2531 120.1 17.1011H122.668C122.844 18.2211 123.764 18.7811 125.428 18.7811C127.028 18.7811 127.828 18.2931 127.828 17.3171C127.828 16.8371 127.644 16.4851 127.276 16.2611C126.908 16.0371 126.444 15.8611 125.884 15.7331C125.34 15.5891 124.74 15.4611 124.084 15.3491C123.444 15.2371 122.844 15.0611 122.284 14.8211C121.74 14.5651 121.284 14.2051 120.916 13.7411C120.548 13.2611 120.364 12.6051 120.364 11.7731Z" fill="black"/>
<path d="M118.885 14.5091C118.885 15.4051 118.733 16.2451 118.429 17.0291C118.125 17.7971 117.701 18.4691 117.157 19.0451C116.613 19.6211 115.965 20.0771 115.213 20.4131C114.477 20.7491 113.661 20.9171 112.765 20.9171C111.741 20.9171 110.885 20.7411 110.197 20.3891C109.525 20.0211 108.981 19.5251 108.565 18.9011V20.7011H106.093V3.42114H108.565V10.0691C108.981 9.44514 109.525 8.95714 110.197 8.60514C110.885 8.23714 111.741 8.05314 112.765 8.05314C113.661 8.05314 114.477 8.22114 115.213 8.55714C115.965 8.87714 116.613 9.33314 117.157 9.92514C117.701 10.5011 118.125 11.1811 118.429 11.9651C118.733 12.7491 118.885 13.5971 118.885 14.5091ZM108.565 13.6931V15.3251C108.645 15.7571 108.789 16.1651 108.997 16.5491C109.205 16.9331 109.469 17.2691 109.789 17.5571C110.125 17.8451 110.509 18.0691 110.941 18.2291C111.389 18.3891 111.869 18.4691 112.381 18.4691C112.989 18.4691 113.533 18.3651 114.013 18.1571C114.493 17.9331 114.901 17.6371 115.237 17.2691C115.573 16.9011 115.829 16.4851 116.005 16.0211C116.197 15.5411 116.293 15.0371 116.293 14.5091C116.293 13.9811 116.197 13.4771 116.005 12.9971C115.829 12.5011 115.573 12.0691 115.237 11.7011C114.901 11.3171 114.493 11.0211 114.013 10.8131C113.533 10.5891 112.989 10.4771 112.381 10.4771C111.853 10.4771 111.373 10.5651 110.941 10.7411C110.509 10.9011 110.125 11.1251 109.789 11.4131C109.469 11.7011 109.205 12.0451 108.997 12.4451C108.789 12.8291 108.645 13.2451 108.565 13.6931Z" fill="black"/>
<path d="M103.367 20.7011H100.895V18.9011C100.479 19.5251 99.9269 20.0211 99.2389 20.3891C98.5669 20.7411 97.7109 20.9171 96.6709 20.9171C95.7909 20.9171 94.9749 20.7491 94.2229 20.4131C93.4709 20.0771 92.8229 19.6211 92.2789 19.0451C91.7349 18.4691 91.3109 17.7971 91.0069 17.0291C90.7029 16.2451 90.5509 15.4051 90.5509 14.5091C90.5509 13.5971 90.7029 12.7491 91.0069 11.9651C91.3109 11.1811 91.7349 10.5011 92.2789 9.9251C92.8229 9.3331 93.4709 8.8771 94.2229 8.5571C94.9749 8.2211 95.7909 8.0531 96.6709 8.0531C97.7109 8.0531 98.5669 8.2371 99.2389 8.6051C99.9269 8.9571 100.479 9.4531 100.895 10.0931V8.2931H103.367V20.7011ZM100.895 13.8131C100.831 13.3491 100.695 12.9171 100.487 12.5171C100.279 12.1011 100.007 11.7491 99.6709 11.4611C99.3349 11.1571 98.9429 10.9171 98.4949 10.7411C98.0469 10.5651 97.5589 10.4771 97.0309 10.4771C96.4229 10.4771 95.8789 10.5891 95.3989 10.8131C94.9189 11.0211 94.5109 11.3171 94.1749 11.7011C93.8389 12.0691 93.5829 12.5011 93.4069 12.9971C93.2309 13.4771 93.1429 13.9811 93.1429 14.5091C93.1429 15.0371 93.2309 15.5411 93.4069 16.0211C93.5989 16.4851 93.8629 16.9011 94.1989 17.2691C94.5349 17.6371 94.9429 17.9331 95.4229 18.1571C95.9029 18.3651 96.4389 18.4691 97.0309 18.4691C97.5589 18.4691 98.0469 18.3891 98.4949 18.2291C98.9429 18.0531 99.3349 17.8211 99.6709 17.5331C100.007 17.2291 100.279 16.8851 100.487 16.5011C100.695 16.1011 100.831 15.6771 100.895 15.2291V13.8131Z" fill="black"/>
<path d="M79.3481 4.62109H81.9401V18.3011H89.7641V20.7011H79.3481V4.62109Z" fill="black"/>
<path d="M26.0889 8.2931H28.5609V10.3091C29.0089 9.6051 29.5609 9.0531 30.2169 8.6531C30.8889 8.2531 31.6569 8.0531 32.5209 8.0531C33.4649 8.0531 34.2489 8.3011 34.8729 8.7971C35.4969 9.2771 35.9449 9.9251 36.2169 10.7411C36.6649 9.9091 37.2489 9.2531 37.9689 8.7731C38.6889 8.2931 39.5289 8.0531 40.4889 8.0531C41.1129 8.0531 41.6729 8.1651 42.1689 8.3891C42.6649 8.6131 43.0809 8.9331 43.4169 9.3491C43.7689 9.7491 44.0329 10.2291 44.2089 10.7891C44.4009 11.3491 44.4969 11.9571 44.4969 12.6131V20.7011H42.0249V13.2851C42.0249 12.3731 41.7929 11.6771 41.3289 11.1971C40.8809 10.7011 40.3049 10.4531 39.6009 10.4531C39.1689 10.4531 38.7609 10.5731 38.3769 10.8131C38.0089 11.0371 37.6889 11.3331 37.4169 11.7011C37.1449 12.0691 36.9289 12.4931 36.7689 12.9731C36.6249 13.4371 36.5449 13.9091 36.5289 14.3891V20.7011H34.0569V13.2851C34.0569 12.3731 33.8249 11.6771 33.3609 11.1971C32.9129 10.7011 32.3369 10.4531 31.6329 10.4531C31.2009 10.4531 30.8009 10.5731 30.4329 10.8131C30.0649 11.0371 29.7449 11.3331 29.4729 11.7011C29.2009 12.0691 28.9849 12.4931 28.8249 12.9731C28.6649 13.4371 28.5769 13.9091 28.5609 14.3891V20.7011H26.0889V8.2931Z" fill="black"/>
<path d="M23.3468 20.7011H20.8748V18.5171C20.4108 19.2691 19.7948 19.8611 19.0268 20.2931C18.2588 20.7251 17.3947 20.9411 16.4347 20.9411C15.7467 20.9411 15.1308 20.8291 14.5868 20.6051C14.0588 20.3651 13.6028 20.0451 13.2188 19.6451C12.8507 19.2291 12.5627 18.7491 12.3547 18.2051C12.1627 17.6451 12.0667 17.0371 12.0667 16.3811V8.29309H14.5387V15.7091C14.5387 16.6211 14.7948 17.3251 15.3068 17.8211C15.8348 18.3011 16.5068 18.5411 17.3228 18.5411C17.8348 18.5411 18.2988 18.4291 18.7148 18.2051C19.1468 17.9651 19.5148 17.6611 19.8188 17.2931C20.1388 16.9091 20.3867 16.4851 20.5627 16.0211C20.7547 15.5411 20.8588 15.0611 20.8748 14.5811V8.29309H23.3468V20.7011Z" fill="black"/>
<path d="M0 4.62109H2.592V18.3011H10.416V20.7011H0V4.62109Z" fill="black"/>
<g clip-path="url(#clip0_53_189)">
<path d="M50.84 0.701172C49.7354 0.701172 48.84 1.5966 48.84 2.70117V24.7012C48.84 25.8057 49.7354 26.7012 50.84 26.7012H72.84C73.9446 26.7012 74.84 25.8057 74.84 24.7012V2.70117C74.84 1.5966 73.9446 0.701172 72.84 0.701172H50.84ZM61.84 19.6318C60.67 19.6318 59.5262 19.2848 58.5534 18.6348C57.5805 17.9847 56.8223 17.0608 56.3745 15.9798C55.9267 14.8989 55.8096 13.7094 56.0379 12.5618C56.2661 11.4143 56.8295 10.3602 57.6569 9.53285C58.4842 8.70551 59.5383 8.14208 60.6859 7.91382C61.8334 7.68556 63.0229 7.80271 64.1039 8.25046C65.1849 8.69822 66.1088 9.45646 66.7588 10.4293C67.4089 11.4022 67.7558 12.5459 67.7558 13.716C67.7558 15.2849 67.1325 16.7896 66.0231 17.8991C64.9137 19.0085 63.409 19.6318 61.84 19.6318Z" fill="#020203"/>
</g>
<defs>
<clipPath id="clip0_53_189">
<rect width="26" height="26" fill="white" transform="translate(48.84 0.701172)"/>
</clipPath>
</defs>
</svg>
